<?xml version="1.0" encoding="utf-8"?>
<!-- Generator: Adobe Illustrator 14.0.0, SVG Export Plug-In . SVG Version: 6.00 Build 43363)  -->
<!DOCTYPE svg PUBLIC "-//W3C//DTD SVG 1.1//EN" "http://www.w3.org/Graphics/SVG/1.1/DTD/svg11.dtd">
<svg version="1.1" id="圖層_1" xmlns="http://www.w3.org/2000/svg" xmlns:xlink="http://www.w3.org/1999/xlink" x="0px" y="0px"
	 width="46px" height="46px" viewBox="0 0 46 46" enable-background="new 0 0 46 46" xml:space="preserve">
<g display="none">
	<path display="inline" fill="#415E9B" d="M46,23.002C46,10.302,35.702,0,23.004,0C10.298,0,0,10.302,0,23.002
		C0,35.703,10.298,46,23.004,46C35.702,46,46,35.703,46,23.002"/>
	<path display="inline" fill="#FFFFFF" d="M24.904,24.883h4.051c0.059-0.617,0.132-1.222,0.24-1.785v-0.035
		c-0.005-0.178,0.006-0.34,0.068-0.446v-0.035c0-0.184-0.014-0.378,0.069-0.481v-0.033c0-0.184-0.014-0.382,0.069-0.481v-0.032
		c0.008-0.428,0.078-0.793,0.139-1.17c-1.535-0.02-3.161,0.048-4.637-0.031c-0.003-1.286-0.193-3.057,0.135-4.124v-0.034
		c0.173-0.503,0.51-0.84,1.031-0.997h0.036c0.94-0.335,2.462-0.1,3.674-0.173c0.033-0.061-0.104-0.115,0-0.138v-3.949
		c-0.025-0.065-0.193,0.01-0.206-0.065h-0.069c-0.302,0.004-0.598,0-0.822-0.069h-0.069c-0.555,0.003-1.098-0.002-1.58-0.069h-0.07
		h-1.168h-0.068c-0.188,0.065-0.432,0.072-0.688,0.069h-0.034c-0.076,0.059-0.2,0.073-0.343,0.069h-0.035
		c-0.453,0.139-0.924,0.264-1.34,0.444h-0.033c-1.329,0.706-2.239,1.692-2.714,3.299c-0.456,1.548-0.251,3.651-0.344,5.667v0.032
		c-0.005,0.027-0.034,0.038-0.034,0.069h-3.949v4.5c1.318,0.024,2.725-0.045,3.983,0.035c0.073,3.566,0.028,6.717,0.036,10.35h4.635
		C24.874,31.625,24.83,28.463,24.904,24.883"/>
</g>
<g display="none">
	<path display="inline" fill="#796A56" d="M46,23.002C46,10.301,35.702,0,23.004,0C10.297,0,0,10.301,0,23.002S10.297,46,23.004,46
		C35.702,46,46,35.703,46,23.002"/>
	<path display="inline" fill="#FFFFFF" d="M31.862,36.368H14.138c-2.484,0-4.506-2.021-4.506-4.506V21.501
		c0-0.264,0.214-0.479,0.478-0.479h5.242c0.143,0,0.277,0.064,0.368,0.175c0.091,0.109,0.128,0.255,0.101,0.395
		c-0.091,0.46-0.137,0.934-0.137,1.407c0,4.035,3.281,7.317,7.315,7.317c4.035,0,7.317-3.282,7.317-7.317
		c0-0.464-0.046-0.938-0.138-1.408c-0.025-0.14,0.011-0.285,0.102-0.394c0.091-0.11,0.226-0.175,0.368-0.175h5.242
		c0.264,0,0.477,0.215,0.477,0.479v10.361C36.367,34.348,34.346,36.368,31.862,36.368"/>
	<path display="inline" fill="#FFFFFF" d="M35.89,18.98h-6.526c-0.154,0-0.3-0.075-0.39-0.202c-1.372-1.938-3.604-3.094-5.975-3.094
		c-2.369,0-4.604,1.156-5.975,3.094c-0.09,0.127-0.234,0.202-0.39,0.202h-6.525c-0.264,0-0.478-0.214-0.478-0.479v-4.363
		c0-2.485,2.022-4.506,4.506-4.506h17.724c2.485,0,4.507,2.021,4.507,4.506v4.363C36.368,18.767,36.154,18.98,35.89,18.98
		 M29.605,18.025h5.808v-3.887c0-1.958-1.593-3.552-3.552-3.552H14.138c-1.958,0-3.551,1.594-3.551,3.552v3.887h5.806
		c1.561-2.069,4.012-3.296,6.606-3.296C25.595,14.729,28.046,15.956,29.605,18.025"/>
	<path display="inline" fill="#FFFFFF" d="M32.852,15.099c0,0.262-0.215,0.477-0.477,0.477h-1.434c-0.263,0-0.477-0.215-0.477-0.477
		v-1.434c0-0.263,0.214-0.477,0.477-0.477h1.434c0.262,0,0.477,0.214,0.477,0.477V15.099z"/>
	<path display="inline" fill="#FFFFFF" d="M22.999,29.111c-3.369,0-6.11-2.741-6.11-6.112c0-3.369,2.741-6.109,6.11-6.109
		c3.37,0,6.112,2.74,6.112,6.109C29.111,26.37,26.369,29.111,22.999,29.111 M22.999,18.358c-2.56,0-4.642,2.082-4.642,4.642
		c0,2.559,2.082,4.643,4.642,4.643s4.642-2.084,4.642-4.643C27.641,20.44,25.559,18.358,22.999,18.358"/>
	<path display="inline" fill="#FFFFFF" d="M31.861,10.11H14.138c-2.227,0-4.028,1.803-4.028,4.027v4.365h6.525
		c1.411-1.994,3.735-3.296,6.363-3.296c2.63,0,4.954,1.302,6.365,3.296h6.527v-4.365C35.891,11.913,34.086,10.11,31.861,10.11
		 M12.443,16.337c0,0.265-0.214,0.479-0.478,0.479s-0.478-0.214-0.478-0.479v-3.466c0-0.263,0.214-0.477,0.478-0.477
		s0.478,0.214,0.478,0.477V16.337z M14.41,16.337c0,0.265-0.214,0.479-0.478,0.479c-0.263,0-0.478-0.214-0.478-0.479v-4.413
		c0-0.264,0.215-0.478,0.478-0.478c0.264,0,0.478,0.214,0.478,0.478V16.337z M16.378,16.337c0,0.265-0.214,0.479-0.478,0.479
		s-0.478-0.214-0.478-0.479v-4.413c0-0.264,0.214-0.478,0.478-0.478s0.478,0.214,0.478,0.478V16.337z M33.934,15.461
		c0,0.659-0.537,1.196-1.196,1.196h-2.159c-0.659,0-1.195-0.537-1.195-1.196v-2.159c0-0.658,0.536-1.195,1.195-1.195h2.159
		c0.659,0,1.196,0.537,1.196,1.195V15.461z"/>
</g>
<g display="none">
	<path display="inline" fill="#C30D23" d="M46,23.002C46,10.302,35.702,0,23.004,0C10.297,0,0,10.302,0,23.002
		C0,35.703,10.297,46,23.004,46C35.702,46,46,35.703,46,23.002"/>
	<polygon display="inline" fill-rule="evenodd" clip-rule="evenodd" fill="#38281B" points="20.281,19.019 26.519,23.185 
		27.396,22.729 	"/>
	<path display="inline" fill="#FFFFFF" d="M35.9,17.737c0,0-0.257-1.815-1.046-2.614c-1.001-1.048-2.124-1.053-2.639-1.115
		c-3.684-0.266-9.209-0.266-9.209-0.266h-0.013c0,0-5.526,0-9.21,0.266c-0.515,0.063-1.637,0.067-2.638,1.115
		c-0.789,0.799-1.046,2.614-1.046,2.614s-0.264,2.13-0.264,4.261v1.997c0,2.13,0.264,4.261,0.264,4.261s0.257,1.814,1.046,2.613
		c1.001,1.049,2.316,1.016,2.903,1.125C16.155,32.197,23,32.26,23,32.26s5.532-0.01,9.216-0.275
		c0.515-0.063,1.638-0.066,2.639-1.115c0.789-0.799,1.046-2.613,1.046-2.613s0.263-2.131,0.263-4.261v-1.997
		C36.163,19.867,35.9,17.737,35.9,17.737 M20.282,26.416l-0.001-7.397l7.113,3.711L20.282,26.416z"/>
</g>
<g>
	<path fill="#4ECD00" d="M46,23.002C46,10.301,35.702,0,23.004,0C10.298,0,0,10.301,0,23.002S10.298,46,23.004,46
		C35.702,46,46,35.703,46,23.002"/>
	<path fill="#FFFFFF" d="M23.007,8.752c3.657,0.025,7.042,0.956,10.017,3.137c2.422,1.774,4.145,4.05,4.735,7.061
		c0.54,2.756-0.095,5.265-1.65,7.572c-1.199,1.778-2.78,3.188-4.413,4.541c-2.681,2.221-5.556,4.157-8.623,5.807
		c-0.267,0.145-0.532,0.291-0.835,0.357c-0.502,0.109-0.845-0.195-0.729-0.699c0.111-0.482,0.301-0.945,0.424-1.426
		c0.124-0.48,0.22-0.972,0.205-1.474c-0.017-0.494-0.259-0.745-0.751-0.788c-3.227-0.288-6.183-1.307-8.763-3.301
		c-2.381-1.838-3.976-4.191-4.444-7.196c-0.45-2.881,0.313-5.489,2.07-7.793c2.164-2.833,5.104-4.459,8.513-5.308
		C20.152,8.896,21.57,8.735,23.007,8.752 M22.874,20.162c0.968,1.327,1.927,2.659,2.906,3.977c0.213,0.286,0.545,0.393,0.894,0.264
		c0.362-0.137,0.518-0.433,0.517-0.815c-0.002-1.918-0.001-3.836-0.008-5.754c-0.002-0.488-0.367-0.851-0.811-0.834
		c-0.429,0.018-0.75,0.377-0.752,0.846c-0.002,0.959-0.002,1.919-0.003,2.878c-0.001,0.192,0,0.386,0,0.649
		c-0.096-0.105-0.133-0.14-0.163-0.18c-0.899-1.22-1.799-2.441-2.698-3.661c-0.145-0.195-0.283-0.399-0.529-0.479
		c-0.564-0.185-1.034,0.199-1.036,0.857c-0.005,1.586-0.002,3.171-0.004,4.757c0,0.345-0.025,0.691-0.001,1.033
		c0.033,0.453,0.381,0.752,0.814,0.742c0.418-0.01,0.749-0.306,0.756-0.752c0.013-1.148,0.034-2.298-0.031-3.446
		C22.744,20.161,22.797,20.141,22.874,20.162 M28.207,20.703h-0.008c0,0.958-0.006,1.916,0.002,2.873
		c0.005,0.576,0.307,0.863,0.882,0.863c0.934,0.002,1.865,0.002,2.799,0c0.51,0,0.854-0.311,0.854-0.768s-0.345-0.79-0.842-0.799
		c-0.358-0.006-0.716-0.001-1.073,0c-1.097,0.001-1.092,0.002-1.049-1.112c0.008-0.199,0.057-0.255,0.264-0.249
		c0.601,0.018,1.2,0.008,1.802,0.005c0.539-0.002,0.888-0.31,0.892-0.78c0.003-0.475-0.339-0.789-0.882-0.795
		c-0.601-0.006-1.2-0.005-1.801,0.004c-0.187,0.004-0.278-0.026-0.26-0.247c0.024-0.279,0.019-0.563,0-0.843
		c-0.013-0.214,0.053-0.287,0.273-0.281c0.574,0.014,1.148,0.008,1.724,0.005c0.575-0.002,0.937-0.302,0.941-0.773
		c0.006-0.497-0.354-0.812-0.944-0.813c-0.869-0.004-1.738-0.003-2.605,0.001c-0.686,0.004-0.965,0.291-0.968,0.989
		C28.205,18.89,28.207,19.796,28.207,20.703 M13.299,20.701h-0.006c0,0.933-0.003,1.865,0,2.797
		c0.002,0.654,0.285,0.941,0.926,0.941c0.906,0.002,1.813,0.004,2.721,0.002c0.535-0.002,0.89-0.322,0.883-0.787
		c-0.007-0.453-0.377-0.771-0.904-0.773c-0.55-0.003-1.1-0.02-1.647,0.008c-0.31,0.014-0.407-0.057-0.403-0.388
		c0.019-1.494,0.004-2.987,0-4.481c-0.001-0.217,0.006-0.435-0.117-0.629c-0.195-0.311-0.535-0.442-0.893-0.345
		c-0.336,0.094-0.553,0.395-0.557,0.82C13.293,18.812,13.299,19.756,13.299,20.701 M18.521,20.742h-0.01
		c0,0.92-0.001,1.841,0.001,2.761c0.001,0.573,0.301,0.926,0.782,0.931c0.486,0.004,0.793-0.34,0.793-0.914
		c-0.004-1.878-0.012-3.758-0.019-5.637c-0.001-0.179-0.009-0.355-0.12-0.511c-0.218-0.304-0.508-0.412-0.866-0.319
		c-0.345,0.091-0.557,0.389-0.56,0.813C18.517,18.825,18.521,19.784,18.521,20.742"/>
	<path fill="#FFFFFF" d="M22.724,20.243c0.015-0.095,0.061-0.128,0.15-0.081C22.798,20.141,22.745,20.161,22.724,20.243"/>
</g>
<g display="none">
	<path display="inline" fill="#22ABB8" d="M46,23.001C46,10.301,35.702,0,23.004,0C10.298,0,0,10.301,0,23.001
		C0,35.702,10.298,46,23.004,46C35.702,46,46,35.702,46,23.001"/>
	<path display="inline" fill="#FFFFFF" d="M23.143,16.999c2.508,0,4.545-2.039,4.545-4.551s-2.037-4.544-4.545-4.544
		c-2.51,0-4.545,2.032-4.545,4.544S20.633,16.999,23.143,16.999 M26.072,17.928H20.21c-3.791,0-6.86,3.075-6.86,6.862v9.153h4.022
		v-9.488h1.4v9.488h8.624v-9.488h1.398v9.488h4.138V24.79C32.933,21.003,29.858,17.928,26.072,17.928"/>
</g>
</svg>
