<?xml version="1.0" encoding="utf-8"?>
<!-- Generator: Adobe Illustrator 19.2.0, SVG Export Plug-In . SVG Version: 6.00 Build 0)  -->
<svg version="1.1" id="圖層_1" xmlns="http://www.w3.org/2000/svg" xmlns:xlink="http://www.w3.org/1999/xlink" x="0px" y="0px"
	 viewBox="0 0 46 46" style="enable-background:new 0 0 46 46;" xml:space="preserve">
<style type="text/css">
	.st0{display:none;}
	.st1{display:inline;fill:#796A56;}
	.st2{display:inline;fill:#FFFFFF;}
	.st3{display:inline;fill:#C30D23;}
	.st4{display:inline;fill:#38281B;}
	.st5{display:inline;fill:#4ECD00;}
	.st6{display:inline;fill:#22ABB8;}
	.st7{fill:#3AD4C7;}
	.st8{fill:#FFFFFF;}
</style>
<g class="st0">
	<path class="st1" d="M46,23C46,10.3,35.7,0,23,0C10.3,0,0,10.3,0,23s10.3,23,23,23C35.7,46,46,35.7,46,23"/>
	<path class="st2" d="M31.9,36.4H14.1c-2.5,0-4.5-2-4.5-4.5V21.5c0-0.3,0.2-0.5,0.5-0.5h5.2c0.1,0,0.3,0.1,0.4,0.2
		c0.1,0.1,0.1,0.3,0.1,0.4c-0.1,0.5-0.1,0.9-0.1,1.4c0,4,3.3,7.3,7.3,7.3c4,0,7.3-3.3,7.3-7.3c0-0.5,0-0.9-0.1-1.4
		c0-0.1,0-0.3,0.1-0.4c0.1-0.1,0.2-0.2,0.4-0.2h5.2c0.3,0,0.5,0.2,0.5,0.5v10.4C36.4,34.3,34.3,36.4,31.9,36.4"/>
	<path class="st2" d="M35.9,19h-6.5c-0.2,0-0.3-0.1-0.4-0.2c-1.4-1.9-3.6-3.1-6-3.1c-2.4,0-4.6,1.2-6,3.1c-0.1,0.1-0.2,0.2-0.4,0.2
		h-6.5c-0.3,0-0.5-0.2-0.5-0.5v-4.4c0-2.5,2-4.5,4.5-4.5h17.7c2.5,0,4.5,2,4.5,4.5v4.4C36.4,18.8,36.2,19,35.9,19 M29.6,18h5.8v-3.9
		c0-2-1.6-3.6-3.6-3.6H14.1c-2,0-3.6,1.6-3.6,3.6V18h5.8c1.6-2.1,4-3.3,6.6-3.3C25.6,14.7,28,16,29.6,18"/>
	<path class="st2" d="M32.9,15.1c0,0.3-0.2,0.5-0.5,0.5h-1.4c-0.3,0-0.5-0.2-0.5-0.5v-1.4c0-0.3,0.2-0.5,0.5-0.5h1.4
		c0.3,0,0.5,0.2,0.5,0.5V15.1z"/>
	<path class="st2" d="M23,29.1c-3.4,0-6.1-2.7-6.1-6.1c0-3.4,2.7-6.1,6.1-6.1c3.4,0,6.1,2.7,6.1,6.1C29.1,26.4,26.4,29.1,23,29.1
		 M23,18.4c-2.6,0-4.6,2.1-4.6,4.6c0,2.6,2.1,4.6,4.6,4.6s4.6-2.1,4.6-4.6C27.6,20.4,25.6,18.4,23,18.4"/>
	<path class="st2" d="M31.9,10.1H14.1c-2.2,0-4,1.8-4,4v4.4h6.5c1.4-2,3.7-3.3,6.4-3.3c2.6,0,5,1.3,6.4,3.3h6.5v-4.4
		C35.9,11.9,34.1,10.1,31.9,10.1 M12.4,16.3c0,0.3-0.2,0.5-0.5,0.5s-0.5-0.2-0.5-0.5v-3.5c0-0.3,0.2-0.5,0.5-0.5s0.5,0.2,0.5,0.5
		V16.3z M14.4,16.3c0,0.3-0.2,0.5-0.5,0.5c-0.3,0-0.5-0.2-0.5-0.5v-4.4c0-0.3,0.2-0.5,0.5-0.5c0.3,0,0.5,0.2,0.5,0.5V16.3z
		 M16.4,16.3c0,0.3-0.2,0.5-0.5,0.5s-0.5-0.2-0.5-0.5v-4.4c0-0.3,0.2-0.5,0.5-0.5c0.3,0,0.5,0.2,0.5,0.5V16.3z M33.9,15.5
		c0,0.7-0.5,1.2-1.2,1.2h-2.2c-0.7,0-1.2-0.5-1.2-1.2v-2.2c0-0.7,0.5-1.2,1.2-1.2h2.2c0.7,0,1.2,0.5,1.2,1.2V15.5z"/>
</g>
<g class="st0">
	<path class="st3" d="M46,23C46,10.3,35.7,0,23,0C10.3,0,0,10.3,0,23c0,12.7,10.3,23,23,23C35.7,46,46,35.7,46,23"/>
	<polygon class="st4" points="20.3,19 26.5,23.2 27.4,22.7 	"/>
	<path class="st2" d="M35.9,17.7c0,0-0.3-1.8-1-2.6c-1-1-2.1-1.1-2.6-1.1c-3.7-0.3-9.2-0.3-9.2-0.3h0c0,0-5.5,0-9.2,0.3
		c-0.5,0.1-1.6,0.1-2.6,1.1c-0.8,0.8-1,2.6-1,2.6S9.8,19.9,9.8,22v2c0,2.1,0.3,4.3,0.3,4.3s0.3,1.8,1,2.6c1,1,2.3,1,2.9,1.1
		c2.1,0.2,9,0.3,9,0.3s5.5,0,9.2-0.3c0.5-0.1,1.6-0.1,2.6-1.1c0.8-0.8,1-2.6,1-2.6s0.3-2.1,0.3-4.3v-2
		C36.2,19.9,35.9,17.7,35.9,17.7 M20.3,26.4l0-7.4l7.1,3.7L20.3,26.4z"/>
</g>
<g class="st0">
	<path class="st5" d="M46,23C46,10.3,35.7,0,23,0C10.3,0,0,10.3,0,23s10.3,23,23,23C35.7,46,46,35.7,46,23"/>
	<path class="st2" d="M23,8.8c3.7,0,7,1,10,3.1c2.4,1.8,4.1,4.1,4.7,7.1c0.5,2.8-0.1,5.3-1.7,7.6c-1.2,1.8-2.8,3.2-4.4,4.5
		c-2.7,2.2-5.6,4.2-8.6,5.8c-0.3,0.1-0.5,0.3-0.8,0.4c-0.5,0.1-0.8-0.2-0.7-0.7c0.1-0.5,0.3-0.9,0.4-1.4c0.1-0.5,0.2-1,0.2-1.5
		c0-0.5-0.3-0.7-0.8-0.8c-3.2-0.3-6.2-1.3-8.8-3.3c-2.4-1.8-4-4.2-4.4-7.2c-0.4-2.9,0.3-5.5,2.1-7.8c2.2-2.8,5.1-4.5,8.5-5.3
		C20.2,8.9,21.6,8.7,23,8.8 M22.9,20.2c1,1.3,1.9,2.7,2.9,4c0.2,0.3,0.5,0.4,0.9,0.3c0.4-0.1,0.5-0.4,0.5-0.8c0-1.9,0-3.8,0-5.8
		c0-0.5-0.4-0.9-0.8-0.8c-0.4,0-0.8,0.4-0.8,0.8c0,1,0,1.9,0,2.9c0,0.2,0,0.4,0,0.6c-0.1-0.1-0.1-0.1-0.2-0.2
		c-0.9-1.2-1.8-2.4-2.7-3.7c-0.1-0.2-0.3-0.4-0.5-0.5c-0.6-0.2-1,0.2-1,0.9c0,1.6,0,3.2,0,4.8c0,0.3,0,0.7,0,1
		c0,0.5,0.4,0.8,0.8,0.7c0.4,0,0.7-0.3,0.8-0.8c0-1.1,0-2.3,0-3.4C22.7,20.2,22.8,20.1,22.9,20.2 M28.2,20.7L28.2,20.7
		c0,1,0,1.9,0,2.9c0,0.6,0.3,0.9,0.9,0.9c0.9,0,1.9,0,2.8,0c0.5,0,0.9-0.3,0.9-0.8s-0.3-0.8-0.8-0.8c-0.4,0-0.7,0-1.1,0
		c-1.1,0-1.1,0-1-1.1c0-0.2,0.1-0.3,0.3-0.2c0.6,0,1.2,0,1.8,0c0.5,0,0.9-0.3,0.9-0.8c0-0.5-0.3-0.8-0.9-0.8c-0.6,0-1.2,0-1.8,0
		c-0.2,0-0.3,0-0.3-0.2c0-0.3,0-0.6,0-0.8c0-0.2,0.1-0.3,0.3-0.3c0.6,0,1.1,0,1.7,0c0.6,0,0.9-0.3,0.9-0.8c0-0.5-0.4-0.8-0.9-0.8
		c-0.9,0-1.7,0-2.6,0c-0.7,0-1,0.3-1,1C28.2,18.9,28.2,19.8,28.2,20.7 M13.3,20.7L13.3,20.7c0,0.9,0,1.9,0,2.8
		c0,0.7,0.3,0.9,0.9,0.9c0.9,0,1.8,0,2.7,0c0.5,0,0.9-0.3,0.9-0.8c0-0.5-0.4-0.8-0.9-0.8c-0.5,0-1.1,0-1.6,0c-0.3,0-0.4-0.1-0.4-0.4
		c0-1.5,0-3,0-4.5c0-0.2,0-0.4-0.1-0.6c-0.2-0.3-0.5-0.4-0.9-0.3c-0.3,0.1-0.6,0.4-0.6,0.8C13.3,18.8,13.3,19.8,13.3,20.7
		 M18.5,20.7L18.5,20.7c0,0.9,0,1.8,0,2.8c0,0.6,0.3,0.9,0.8,0.9c0.5,0,0.8-0.3,0.8-0.9c0-1.9,0-3.8,0-5.6c0-0.2,0-0.4-0.1-0.5
		c-0.2-0.3-0.5-0.4-0.9-0.3c-0.3,0.1-0.6,0.4-0.6,0.8C18.5,18.8,18.5,19.8,18.5,20.7"/>
	<path class="st2" d="M22.7,20.2c0-0.1,0.1-0.1,0.1-0.1C22.8,20.1,22.7,20.2,22.7,20.2"/>
</g>
<g class="st0">
	<path class="st6" d="M46,23C46,10.3,35.7,0,23,0C10.3,0,0,10.3,0,23c0,12.7,10.3,23,23,23C35.7,46,46,35.7,46,23"/>
	<path class="st2" d="M23.1,17c2.5,0,4.5-2,4.5-4.6s-2-4.5-4.5-4.5c-2.5,0-4.5,2-4.5,4.5S20.6,17,23.1,17 M26.1,17.9h-5.9
		c-3.8,0-6.9,3.1-6.9,6.9v9.2h4v-9.5h1.4v9.5h8.6v-9.5h1.4v9.5h4.1v-9.2C32.9,21,29.9,17.9,26.1,17.9"/>
</g>
<g>
	<g>
		<g>
			<g>
				<g>
					<g>
						<g>
							<g>
								<path class="st7" d="M46,23C46,10.3,35.7,0,23,0C10.3,0,0,10.3,0,23c0,12.7,10.3,23,23,23C35.7,46,46,35.7,46,23z"/>
							</g>
						</g>
					</g>
				</g>
			</g>
		</g>
	</g>
	<path class="st8" d="M32.2,14.2H13.8c-2,0-3.5,1.6-3.5,3.5v9.7c0,2,1.6,3.5,3.5,3.5h2.9L13,36.4L23.7,31l8.5,0c2,0,3.5-1.6,3.5-3.5
		v-9.7C35.8,15.8,34.2,14.2,32.2,14.2z M17.5,24.2c-0.8,0-1.5-0.7-1.5-1.5c0-0.8,0.7-1.5,1.5-1.5c0.8,0,1.5,0.7,1.5,1.5
		C19,23.6,18.4,24.2,17.5,24.2z M23,24.2c-0.8,0-1.5-0.7-1.5-1.5c0-0.8,0.7-1.5,1.5-1.5c0.8,0,1.5,0.7,1.5,1.5
		C24.5,23.6,23.8,24.2,23,24.2z M28.5,24.2c-0.8,0-1.5-0.7-1.5-1.5c0-0.8,0.7-1.5,1.5-1.5c0.8,0,1.5,0.7,1.5,1.5
		C30,23.6,29.3,24.2,28.5,24.2z"/>
</g>
</svg>
