<svg xmlns="http://www.w3.org/2000/svg" xmlns:xlink="http://www.w3.org/1999/xlink" width="25" height="25" viewBox="0 0 25 25">
  <defs>
    <clipPath id="clip-path">
      <rect id="Rectangle_463" data-name="Rectangle 463" width="19.11" height="17.284" fill="#333"/>
    </clipPath>
  </defs>
  <g id="Group_1269" data-name="Group 1269" transform="translate(-8707 -57)">
    <rect id="Rectangle_467" data-name="Rectangle 467" width="25" height="25" transform="translate(8707 57)" fill="#fff" opacity="0"/>
    <g id="menu_btn_mo3" transform="translate(8706.4 54.6)">
      <g id="Group_1264" data-name="Group 1264" transform="translate(3.6 6.4)" clip-path="url(#clip-path)">
        <path id="Path_181" data-name="Path 181" d="M21.5,40.716H4.806a1.259,1.259,0,0,1,0-2.516H21.5a1.227,1.227,0,0,1,1.206,1.258A1.258,1.258,0,0,1,21.5,40.716" transform="translate(-3.6 -23.385)" fill="#333"/>
      </g>
      <g id="Group_1265" data-name="Group 1265" transform="translate(3.6 6.4)" clip-path="url(#clip-path)">
        <path id="Path_182" data-name="Path 182" d="M21.5,24.816H4.806a1.259,1.259,0,0,1,0-2.516H21.5a1.259,1.259,0,0,1,0,2.516" transform="translate(-3.6 -14.892)" fill="#333"/>
      </g>
      <g id="Group_1266" data-name="Group 1266" transform="translate(3.6 6.4)" clip-path="url(#clip-path)">
        <path id="Path_183" data-name="Path 183" d="M21.5,9.016H4.806a1.259,1.259,0,0,1,0-2.516H21.5a1.259,1.259,0,0,1,0,2.516" transform="translate(-3.6 -6.453)" fill="#333"/>
      </g>
    </g>
  </g>
</svg>
