<svg id="icon-LINE-color" xmlns="http://www.w3.org/2000/svg" width="40" height="40" viewBox="0 0 40 40">
  <g id="Ellipse_3" data-name="Ellipse 3" fill="#fff" stroke="#ccc" stroke-width="1">
    <circle cx="20" cy="20" r="20" stroke="none"/>
    <circle cx="20" cy="20" r="19.5" fill="none"/>
  </g>
  <g id="Group_21" data-name="Group 21" transform="translate(1.632 1.45)">
    <g id="Group_13" data-name="Group 13" transform="translate(7.677 9.55)">
      <path id="Path_70" data-name="Path 70" d="M29.059,18.2c0-4.751-4.808-8.654-10.691-8.654S7.677,13.453,7.677,18.2c0,4.3,3.79,7.863,8.938,8.542.339.056.848.226.962.509a2.764,2.764,0,0,1,.056.962s-.113.735-.17.9c-.056.283-.226,1.075.905.566a32.865,32.865,0,0,0,8.372-6.222h0A7.232,7.232,0,0,0,29.059,18.2ZM14.578,20.75a.244.244,0,0,1-.226.226h-3a.208.208,0,0,1-.17-.057h0a.209.209,0,0,1-.056-.17h0V16.112a.243.243,0,0,1,.226-.226h.792a.243.243,0,0,1,.226.226v3.677h2.037a.243.243,0,0,1,.226.226v.736Zm1.81,0a.244.244,0,0,1-.226.226h-.735a.244.244,0,0,1-.226-.226V16.112a.244.244,0,0,1,.226-.226h.735a.244.244,0,0,1,.226.226Zm5.2,0a.244.244,0,0,1-.226.226h-.792l-.057-.057-2.206-2.885v2.772a.243.243,0,0,1-.226.226H17.35a.243.243,0,0,1-.226-.226V16.168a.243.243,0,0,1,.226-.226h.736l2.15,2.885V16.055a.243.243,0,0,1,.226-.226H21.2a.243.243,0,0,1,.226.226v4.7Zm4.129-3.9a.243.243,0,0,1-.226.226H23.459v.792H25.5a.244.244,0,0,1,.226.226v.736a.243.243,0,0,1-.226.226H23.459v.792H25.5a.244.244,0,0,1,.226.226v.736a.243.243,0,0,1-.226.226h-3a.209.209,0,0,1-.17-.056h0a.208.208,0,0,1-.057-.17h0V16.168h0a.207.207,0,0,1,.057-.17h0a.207.207,0,0,1,.17-.057h3a.244.244,0,0,1,.226.226Z" transform="translate(-7.677 -9.55)" fill="#00c300"/>
    </g>
  </g>
</svg>
