<?xml version="1.0" encoding="utf-8"?>
<!-- Generator: Adobe Illustrator 19.2.0, SVG Export Plug-In . SVG Version: 6.00 Build 0)  -->
<svg version="1.1" id="圖層_1" xmlns="http://www.w3.org/2000/svg" xmlns:xlink="http://www.w3.org/1999/xlink" x="0px" y="0px"
	 viewBox="0 0 13.6 24.5" style="enable-background:new 0 0 13.6 24.5;" xml:space="preserve">
<style type="text/css">
	.st0{fill:#FFFFFF;}
</style>
<g>
	<path class="st0" d="M8.7,14.1c1.3,0,2.7,0,4.1,0c0.1-0.6,0.1-1.2,0.2-1.8c0,0,0,0,0,0c0-0.2,0-0.3,0.1-0.4c0,0,0,0,0,0
		c0-0.2,0-0.4,0.1-0.5c0,0,0,0,0,0c0-0.2,0-0.4,0.1-0.5c0,0,0,0,0,0c0-0.4,0.1-0.8,0.1-1.2c-1.5,0-3.2,0-4.6,0
		c0-1.3-0.2-3.1,0.1-4.1c0,0,0,0,0,0c0.2-0.5,0.5-0.8,1-1c0,0,0,0,0,0c0.9-0.3,2.5-0.1,3.7-0.2c0-0.1-0.1-0.1,0-0.1
		c0-1.3,0-2.6,0-3.9c0-0.1-0.2,0-0.2-0.1c0,0,0,0-0.1,0c-0.3,0-0.6,0-0.8-0.1c0,0,0,0-0.1,0c-0.6,0-1.1,0-1.6-0.1c0,0,0,0-0.1,0
		C10.4,0,10,0,9.6,0c0,0,0,0-0.1,0C9.3,0.1,9.1,0.1,8.8,0.1c0,0,0,0,0,0C8.7,0.1,8.6,0.1,8.4,0.1c0,0,0,0,0,0C8,0.3,7.5,0.4,7.1,0.6
		c0,0,0,0,0,0C5.7,1.3,4.8,2.3,4.3,3.9C3.9,5.4,4.1,7.5,4,9.5c0,0,0,0,0,0c0,0,0,0,0,0.1c-1.3,0-2.6,0-3.9,0c0,1.5,0,3,0,4.5
		c1.3,0,2.7,0,4,0c0.1,3.6,0,6.7,0,10.4h4.6C8.7,20.9,8.6,17.7,8.7,14.1z"/>
</g>
</svg>
