<?xml version="1.0" encoding="utf-8"?>
<!-- Generator: Adobe Illustrator 20.1.0, SVG Export Plug-In . SVG Version: 6.00 Build 0)  -->
<svg version="1.1" id="圖層_1" xmlns="http://www.w3.org/2000/svg" xmlns:xlink="http://www.w3.org/1999/xlink" x="0px" y="0px"
	 viewBox="0 0 30 30" style="enable-background:new 0 0 30 30;" xml:space="preserve">
<style type="text/css">
	.st0{fill:#9D9D9D;}
</style>
<g>
	<g>
		<path class="st0" d="M14.1,7.8v5.6c-0.2,0.1-0.4,0.3-0.5,0.5c-0.8,0.9-0.7,2.3,0.2,3.1c0.9,0.8,2.3,0.7,3.1-0.2
			c0.8-0.9,0.7-2.3-0.2-3.1c-0.1-0.1-0.2-0.1-0.3-0.2V7.9L14.1,7.8z"/>
		<path class="st0" d="M7.7,16.4h5.6c0.1,0.2,0.3,0.4,0.5,0.5c0.9,0.8,2.3,0.7,3.1-0.2c0.8-0.9,0.7-2.3-0.2-3.1
			c-0.9-0.8-2.3-0.7-3.1,0.2c-0.1,0.1-0.1,0.2-0.2,0.3H7.8L7.7,16.4z"/>
	</g>
	<g>
		<path class="st0" d="M15,0.7C7.1,0.7,0.7,7.1,0.7,15S7.1,29.3,15,29.3S29.3,22.9,29.3,15S22.9,0.7,15,0.7z M15,25.7
			C9.1,25.7,4.3,20.9,4.3,15S9.1,4.3,15,4.3S25.7,9.1,25.7,15S20.9,25.7,15,25.7z"/>
	</g>
</g>
</svg>
