<svg id="icon-YT-color" xmlns="http://www.w3.org/2000/svg" width="40" height="40" viewBox="0 0 40 40">
  <g id="Ellipse_2" data-name="Ellipse 2" fill="#fff" stroke="#ccc" stroke-width="1">
    <circle cx="20" cy="20" r="20" stroke="none"/>
    <circle cx="20" cy="20" r="19.5" fill="none"/>
  </g>
  <g id="Group_17" data-name="Group 17" transform="translate(-0.61 -2.019)">
    <g id="Group_16" data-name="Group 16" transform="translate(10.532 14.833)">
      <g id="Lozenge">
        <g id="Group_15" data-name="Group 15">
          <path id="Path_71" data-name="Path 71" d="M30.762,17.929a4.815,4.815,0,0,0-.829-2.045A2.939,2.939,0,0,0,27.887,15c-2.819-.166-7.13-.166-7.13-.166h0s-4.311,0-7.13.221a2.939,2.939,0,0,0-2.045.884,4.572,4.572,0,0,0-.829,2.045,28.739,28.739,0,0,0-.221,3.316v1.548a28.739,28.739,0,0,0,.221,3.316,4.812,4.812,0,0,0,.829,2.045,3.591,3.591,0,0,0,2.266.884c1.6.055,6.909.111,6.909.111s4.311,0,7.13-.221a2.939,2.939,0,0,0,2.045-.884,4.572,4.572,0,0,0,.829-2.045,28.739,28.739,0,0,0,.221-3.316V21.19A28.431,28.431,0,0,0,30.762,17.929Zm-12.1,6.743V18.924L24.185,21.8Z" transform="translate(-10.532 -14.833)" fill="red"/>
        </g>
      </g>
    </g>
  </g>
</svg>
