<?xml version="1.0" encoding="utf-8"?>
<!-- Generator: Adobe Illustrator 19.2.0, SVG Export Plug-In . SVG Version: 6.00 Build 0)  -->
<svg version="1.1" id="圖層_1" xmlns="http://www.w3.org/2000/svg" xmlns:xlink="http://www.w3.org/1999/xlink" x="0px" y="0px"
	 viewBox="0 0 26.8 18.9" style="enable-background:new 0 0 26.8 18.9;" xml:space="preserve">
<style type="text/css">
	.st0{fill-rule:evenodd;clip-rule:evenodd;fill:#38281B;}
	.st1{fill:#FFFFFF;}
</style>
<g>
	<path id="The_Sharpness_1_" class="st0" d="M10.6,5.5l6.2,4.2l0.9-0.5L10.6,5.5z"/>
	<g id="Lozenge_2_">
		<g>
			<path class="st1" d="M26.3,4.2c0,0-0.3-1.8-1-2.6c-1-1-2.1-1.1-2.6-1.1c-3.7-0.3-9.2-0.3-9.2-0.3h0c0,0-5.5,0-9.2,0.3
				C3.6,0.5,2.5,0.5,1.5,1.6c-0.8,0.8-1,2.6-1,2.6S0.2,6.3,0.2,8.5v2c0,2.1,0.3,4.3,0.3,4.3s0.3,1.8,1,2.6c1,1,2.3,1,2.9,1.1
				c2.1,0.2,9,0.3,9,0.3s5.5,0,9.2-0.3c0.5-0.1,1.6-0.1,2.6-1.1c0.8-0.8,1-2.6,1-2.6s0.3-2.1,0.3-4.3v-2C26.5,6.3,26.3,4.2,26.3,4.2
				z M10.6,12.9l0-7.4l7.1,3.7L10.6,12.9z"/>
		</g>
	</g>
</g>
</svg>
