<svg xmlns="http://www.w3.org/2000/svg" width="40" height="40" viewBox="0 0 40 40">
  <g id="Group_14846" data-name="Group 14846" transform="translate(-1310 -359)">
    <g id="Ellipse_5" data-name="Ellipse 5" transform="translate(1310 359)" fill="none" stroke="#333" stroke-width="1">
      <circle cx="20" cy="20" r="20" stroke="none"/>
      <circle cx="20" cy="20" r="19.5" fill="none"/>
    </g>
    <path id="Path_73" data-name="Path 73" d="M33.312,16.544a9.578,9.578,0,0,1-2.658.72,4.646,4.646,0,0,0,2.038-2.556,9.241,9.241,0,0,1-2.939,1.126,4.617,4.617,0,0,0-7.883,4.213,13.113,13.113,0,0,1-9.516-4.832,4.678,4.678,0,0,0-.62,2.331,4.607,4.607,0,0,0,2.049,3.841,4.559,4.559,0,0,1-2.094-.575v.056a4.618,4.618,0,0,0,3.717,4.505,4.433,4.433,0,0,1-1.239.191,5.494,5.494,0,0,1-.868-.078,4.629,4.629,0,0,0,4.313,3.2,9.252,9.252,0,0,1-5.7,1.982,8.919,8.919,0,0,1-1.126-.067A13.166,13.166,0,0,0,31.059,19.767c0-.079,0-.158,0-.238v-.6A9.5,9.5,0,0,0,33.312,16.544Z" transform="translate(1307.95 356.485)" fill="#333"/>
  </g>
</svg>
