<?xml version="1.0" encoding="utf-8"?>
<!-- Generator: Adobe Illustrator 19.2.0, SVG Export Plug-In . SVG Version: 6.00 Build 0)  -->
<svg version="1.1" id="圖層_1" xmlns="http://www.w3.org/2000/svg" xmlns:xlink="http://www.w3.org/1999/xlink" x="0px" y="0px"
	 viewBox="0 0 26.3 18.5" style="enable-background:new 0 0 26.3 18.5;" xml:space="preserve">
<style type="text/css">
	.st0{fill-rule:evenodd;clip-rule:evenodd;fill:#C30D23;}
	.st1{fill:#C30D23;}
</style>
<g>
	<path id="The_Sharpness_1_" class="st0" d="M10.4,5.3l6.2,4.2L17.6,9L10.4,5.3z"/>
	<g id="Lozenge_2_">
		<g>
			<path class="st1" d="M26.1,4c0,0-0.3-1.8-1-2.6c-1-1-2.1-1.1-2.6-1.1C18.7,0,13.2,0,13.2,0h0c0,0-5.5,0-9.2,0.3
				C3.4,0.3,2.3,0.3,1.3,1.4C0.5,2.2,0.3,4,0.3,4S0,6.1,0,8.3v2c0,2.1,0.3,4.3,0.3,4.3s0.3,1.8,1,2.6c1,1,2.3,1,2.9,1.1
				c2.1,0.2,9,0.3,9,0.3s5.5,0,9.2-0.3c0.5-0.1,1.6-0.1,2.6-1.1c0.8-0.8,1-2.6,1-2.6s0.3-2.1,0.3-4.3v-2C26.3,6.1,26.1,4,26.1,4z
				 M10.4,12.7l0-7.4L17.6,9L10.4,12.7z"/>
		</g>
	</g>
</g>
</svg>
