<svg id="icon-IG-color" xmlns="http://www.w3.org/2000/svg" xmlns:xlink="http://www.w3.org/1999/xlink" width="40" height="40" viewBox="0 0 40 40">
  <defs>
    <linearGradient id="linear-gradient" x1="0.795" y1="0.765" x2="0.13" y2="0.075" gradientUnits="objectBoundingBox">
      <stop offset="0" stop-color="#e1306c"/>
      <stop offset="0.243" stop-color="#fcaf45"/>
      <stop offset="0.656" stop-color="#e1306c"/>
      <stop offset="1" stop-color="#405de6"/>
    </linearGradient>
  </defs>
  <g id="Ellipse_4" data-name="Ellipse 4" fill="#fff" stroke="#ccc" stroke-width="1">
    <circle cx="20" cy="20" r="20" stroke="none"/>
    <circle cx="20" cy="20" r="19.5" fill="none"/>
  </g>
  <path id="Path_72" data-name="Path 72" d="M27.422,14.885h0A1.283,1.283,0,1,0,28.7,16.168a1.283,1.283,0,0,0-1.283-1.283Zm4.917,2.587a8.1,8.1,0,0,0-.492-2.6,5.282,5.282,0,0,0-1.24-1.892,5.022,5.022,0,0,0-1.892-1.23,7.816,7.816,0,0,0-2.6-.5c-1.133-.065-1.5-.065-4.4-.065s-3.271,0-4.4.065a7.809,7.809,0,0,0-2.6.5,5.118,5.118,0,0,0-1.892,1.23,5.023,5.023,0,0,0-1.23,1.892,7.832,7.832,0,0,0-.5,2.6c-.064,1.133-.064,1.5-.064,4.4s0,3.271.064,4.4a7.832,7.832,0,0,0,.5,2.6,5.023,5.023,0,0,0,1.23,1.892A5.118,5.118,0,0,0,14.71,32a7.829,7.829,0,0,0,2.6.5c1.133.064,1.5.064,4.4.064s3.272,0,4.4-.064a7.836,7.836,0,0,0,2.6-.5,5.022,5.022,0,0,0,1.892-1.23,5.181,5.181,0,0,0,1.24-1.892,8.094,8.094,0,0,0,.492-2.6c0-1.133.065-1.5.065-4.4S32.4,18.605,32.339,17.472Zm-1.924,8.681a6,6,0,0,1-.363,1.988,3.281,3.281,0,0,1-.8,1.23,3.421,3.421,0,0,1-1.23.8,6.005,6.005,0,0,1-1.988.363c-1.069.053-1.465.064-4.277.064s-3.207,0-4.276-.064a6.13,6.13,0,0,1-2.073-.321,3.491,3.491,0,0,1-1.176-.8,3.214,3.214,0,0,1-.791-1.23,5.9,5.9,0,0,1-.427-2.031c0-1.069-.065-1.465-.065-4.276s0-3.208.065-4.277a5.909,5.909,0,0,1,.374-2.031,3.213,3.213,0,0,1,.844-1.176,3.365,3.365,0,0,1,1.176-.855,6.113,6.113,0,0,1,2.031-.363c1.069,0,1.465-.064,4.276-.064s3.207,0,4.276.064a5.986,5.986,0,0,1,1.989.363,3.277,3.277,0,0,1,1.272.855,3.283,3.283,0,0,1,.8,1.176,6,6,0,0,1,.363,2.031c.053,1.069.064,1.465.064,4.277S30.468,25.084,30.415,26.153Zm-8.7-9.761a5.479,5.479,0,1,0,.033,0Zm0,9.044a3.56,3.56,0,1,1,3.56-3.56h0A3.56,3.56,0,0,1,21.713,25.437Z" transform="translate(-1.713 -1.877)" fill="url(#linear-gradient)"/>
</svg>
