<svg xmlns="http://www.w3.org/2000/svg" width="15.238" height="20" viewBox="0 0 15.238 20">
  <path id="Icon_ionic-md-lock" data-name="Icon ionic-md-lock" d="M20.083,9.9h-.952V8A4.762,4.762,0,1,0,9.607,8V9.9H8.655a1.91,1.91,0,0,0-1.9,1.9V21.33a1.91,1.91,0,0,0,1.9,1.9H20.083a1.91,1.91,0,0,0,1.9-1.9V11.806A1.91,1.91,0,0,0,20.083,9.9Zm-5.714,8.667a1.9,1.9,0,1,1,1.9-1.9A1.91,1.91,0,0,1,14.369,18.568ZM17.322,9.9H11.417V8a2.953,2.953,0,0,1,5.905,0Z" transform="translate(-6.75 -3.234)" fill="#578bf7"/>
</svg>
