<svg id="Group_14937" data-name="Group 14937" xmlns="http://www.w3.org/2000/svg" width="156.478" height="65.539" viewBox="0 0 156.478 65.539">
  <path id="Path_80" data-name="Path 80" d="M186.211,129.169q-5.429,9.168-6.586,15.279c-1.691,8.645-1.073,12.126,5.014,14.686.239.055-.174,1.033-.348,1.278-.192.219-.417.49-.7.462-6.086,0,1.663-.908-4.443,4.016-.281.218-.512.233-.7.044a9.67,9.67,0,0,1-2.522-3.14q-4.212-8.678,4.051-23.54-2.067,2.808-3.722,5.08a68.717,68.717,0,0,1-10.81,10.942,59.869,59.869,0,0,1-22.735,10.986c-.344.025-.5-.013-.465-.124.046-.222.231-.388.566-.5a74.114,74.114,0,0,0,9.892-4.707,71.2,71.2,0,0,0,13-9.953q7.171-7.349,16.41-22.959c.179-.3.359-.456.535-.456a22.415,22.415,0,0,1,5.232.456c.584.166.782.415.584.741a2.084,2.084,0,0,1-1.422.825.789.789,0,0,0-.669.375c-.015.027-.051.082-.1.163a.072.072,0,0,0-.07.043" transform="translate(-122.17 -109.787)" fill="#e3007f"/>
  <path id="Path_81" data-name="Path 81" d="M643.36,229.174q-.12.493-4.406,4.176-3.551,3.06-5.2,3.061a1.789,1.789,0,0,1-1.565-.768,2.214,2.214,0,0,1-.271-1.853,6.836,6.836,0,0,1,1.473-2.363l-.6.586a49.445,49.445,0,0,1-3.982,3.421,4.141,4.141,0,0,1-2.316.976,1.774,1.774,0,0,1-1.55-.746,2.164,2.164,0,0,1-.261-1.832,7.215,7.215,0,0,1,1.741-2.882l5.838-6.631a6.787,6.787,0,0,0,1.21.155,16.188,16.188,0,0,0,1.635-.155l-7.6,8.495a5.718,5.718,0,0,0-1.394,2.294c-.156.648.059.974.652.974q2.365,0,9.532-8.165l3.149-3.6a5.817,5.817,0,0,0,1.182.155,14.19,14.19,0,0,0,1.709-.155l-5.1,5.654q-3.638,4.03-3.906,5.176c-.154.624.094.932.737.932q1.877,0,7.408-5.427l.952-.924.534-.474c.115-.145.21-.216.291-.216s.126.039.107.131" transform="translate(-528.611 -192.166)" fill="#e3007f"/>
  <path id="Path_82" data-name="Path 82" d="M739.4,228.421a4.073,4.073,0,0,1-.558.559l-1.282,1.162q-6.179,5.518-9.646,5.516a2.964,2.964,0,0,1-2.488-1.092,3.05,3.05,0,0,1-.458-2.733q.934-3.89,7.526-6.847a14.5,14.5,0,0,1,5.414-1.559,1.849,1.849,0,0,1,1.331.465,1.1,1.1,0,0,1,.326,1.13c-.246,1.034-1.2,1.913-2.839,2.638a36.939,36.939,0,0,1-7.862,2.035,9.265,9.265,0,0,0-2.495,3.727c-.3,1.24.283,1.862,1.733,1.862q3.714,0,10.682-6.651c.241-.229.426-.343.553-.343.058.014.079.058.063.131m-.985-4.018q.164-.69-.658-.692a7.768,7.768,0,0,0-3.661,1.586,33.023,33.023,0,0,0-4.98,4.118,24.358,24.358,0,0,0,6.287-2.259q2.695-1.459,3.013-2.754" transform="translate(-613.081 -191.414)" fill="#e3007f"/>
  <path id="Path_83" data-name="Path 83" d="M813,228.421a4.1,4.1,0,0,1-.56.559l-1.287,1.162q-6.173,5.518-9.639,5.516a2.976,2.976,0,0,1-2.492-1.092,3.066,3.066,0,0,1-.453-2.733q.931-3.89,7.529-6.847a14.439,14.439,0,0,1,5.412-1.559,1.849,1.849,0,0,1,1.329.465,1.109,1.109,0,0,1,.328,1.13q-.381,1.551-2.843,2.638a36.753,36.753,0,0,1-7.864,2.035,9.262,9.262,0,0,0-2.491,3.727q-.443,1.859,1.738,1.862,3.706,0,10.677-6.651c.243-.229.427-.343.552-.343.065.014.08.058.065.131m-.986-4.018c.1-.46-.11-.692-.659-.692a7.787,7.787,0,0,0-3.663,1.586,32.84,32.84,0,0,0-4.974,4.118A24.321,24.321,0,0,0,809,227.157q2.7-1.459,3.013-2.754" transform="translate(-675.098 -191.414)" fill="#e3007f"/>
  <path id="Path_84" data-name="Path 84" d="M891.946,228.121q-.11.453-4.406,4.18-3.536,3.058-5.128,3.059a1.832,1.832,0,0,1-1.591-.755,2.2,2.2,0,0,1-.266-1.859,4.754,4.754,0,0,1,.865-1.8q.639-.829,3.071-3.293,2.538-2.591,2.706-3.3c.142-.593-.128-.887-.8-.887q-3.424,0-13.371,11.712c-.755-.059-1.208-.085-1.364-.085a13.4,13.4,0,0,0-1.57.085l4.923-5.335q4.207-4.586,4.481-5.728c.1-.432-.039-.649-.429-.649q-1.2,0-5.814,4.629a1.083,1.083,0,0,1-.4.3c-.08,0-.118-.042-.113-.129a.469.469,0,0,1,.136-.172l.581-.54q4.644-4.412,5.89-4.419a1.307,1.307,0,0,1,1.2.673,2.038,2.038,0,0,1,.177,1.6,10.183,10.183,0,0,1-2.677,3.843,54.183,54.183,0,0,1,5.416-4.816,5.642,5.642,0,0,1,3.076-1.3,1.737,1.737,0,0,1,1.549.782,2.338,2.338,0,0,1,.243,1.92c-.231.964-1.311,2.442-3.228,4.428q-2.951,3.044-3.151,3.888-.216.884.75.886,2.087,0,8.852-6.826c.106-.144.208-.216.285-.216s.128.045.107.13" transform="translate(-735.473 -191.162)" fill="#e3007f"/>
  <path id="Path_85" data-name="Path 85" d="M92.556,23.356q-4.146,0-10.42,2.893a57.836,57.836,0,0,0-7.338,4,8.122,8.122,0,0,0-.983-1.035.853.853,0,0,0-1.041.09q-2.411,1.686-4.583,3.369a1.961,1.961,0,0,1-1.2.455H50.712q4.077-4.644,8.1-9.325a2.609,2.609,0,0,1,1.337-.954,2.268,2.268,0,0,0,1.71-.867c.262-.451.008-.786-.75-1A26.27,26.27,0,0,0,56.9,20.03q-.4-.138-.823.363a113.352,113.352,0,0,1-7.537,9.177,6.913,6.913,0,0,0-7.321-5.876q-6.852,0-15.889,6.437a32.739,32.739,0,0,0-6.792,6.3,17.729,17.729,0,0,0-3.558,6.645,6.568,6.568,0,0,0,.723,5.6,5.506,5.506,0,0,0,4.831,2.22q5.636,0,12.079-6,5.825-5.44,6.9-9.779a7.039,7.039,0,0,0,.142-.759h4.62q-5.616,6.181-12.305,12.688c-.691.666-1.031,1.179-1.019,1.545.04.487.54.82,1.505,1a4.1,4.1,0,0,0,3.159-.684q.379-.406,3.209-3.092A29.822,29.822,0,0,1,44.271,50.5Q32.8,58.461,16.708,61.959a.883.883,0,0,0-.566.5c-.074.184.039.258.34.229a58.957,58.957,0,0,0,29.944-9.6A24.21,24.21,0,0,1,50.4,60.96a1.621,1.621,0,0,0,1.183,1.322,3.145,3.145,0,0,0,2.356-.5,6.03,6.03,0,0,0,2.186-2.458q2.056-4.626-5.22-9.169,4.209-3.07,10.424-8.55,5.306-4.682,8.434-7.246h5.381a1.445,1.445,0,0,0,.979-.32A.567.567,0,0,0,76.3,33.4a7.824,7.824,0,0,0-1.29-2.88c1.337-.836,2.79-1.667,4.37-2.483q7.371-3.789,11.936-3.789a13.553,13.553,0,0,1,1.53.072h.28c.413,0,.653-.149.727-.453.081-.337-.35-.51-1.293-.51M39.631,33.129a2.813,2.813,0,0,0-.426-1.084,2.886,2.886,0,0,0-2.572-1.153,5.389,5.389,0,0,0-2.964.914,4.821,4.821,0,0,0-1.116.965c-.191,0-.314.065-.355.22a11.825,11.825,0,0,0-.458,1.637c-.062.153,0,.219.185.2.136.443.55.67,1.257.67a2.745,2.745,0,0,0,1.587-.523,2.608,2.608,0,0,0,.644-.616h3.733a5.574,5.574,0,0,1-.133.732q-.9,3.625-5.453,8.262-7.014,7.125-12.878,7.128a4.748,4.748,0,0,1-4.072-1.732,5.171,5.171,0,0,1-.6-4.539Q17.7,37.433,25.979,30.77t14.994-6.662q3.184,0,4.538,1.974t.512,5.339l.5.435q-.552.619-1.128,1.273Zm-.533,0H35.885l-.136-.016c-.071-.379-.371-.576-.906-.576a8.314,8.314,0,0,0-.882.095,1.42,1.42,0,0,1-.27.045c-.1,0-.146-.045-.12-.14q.1-.416,1.083-.825a5.011,5.011,0,0,1,1.916-.406,2.426,2.426,0,0,1,2.2,1.039,2.548,2.548,0,0,1,.327.783m.742,11.642q7.956-8.323,9.752-10.414h9.976A57.6,57.6,0,0,1,47.441,48.136a51.961,51.961,0,0,0-7.6-3.365m24.593-6.423Q54.256,47.3,52.108,48.961c-.538.424-1.014.786-1.428,1.1a.254.254,0,0,1-.037-.013A74.5,74.5,0,0,0,64.885,34.357h4.291c-1.48,1.182-3.061,2.508-4.744,3.991" transform="translate(-14.685 -20)" fill="#e3007f"/>
  <path id="Path_86" data-name="Path 86" d="M92.556,23.356q-4.146,0-10.42,2.893a57.836,57.836,0,0,0-7.338,4,8.122,8.122,0,0,0-.983-1.035.853.853,0,0,0-1.041.09q-2.411,1.686-4.583,3.369a1.961,1.961,0,0,1-1.2.455H50.712q4.077-4.644,8.1-9.325a2.609,2.609,0,0,1,1.337-.954,2.268,2.268,0,0,0,1.71-.867c.262-.451.008-.786-.75-1A26.27,26.27,0,0,0,56.9,20.03q-.4-.138-.823.363a113.352,113.352,0,0,1-7.537,9.177,6.913,6.913,0,0,0-7.321-5.876q-6.852,0-15.889,6.437a32.739,32.739,0,0,0-6.792,6.3,17.729,17.729,0,0,0-3.558,6.645,6.568,6.568,0,0,0,.723,5.6,5.506,5.506,0,0,0,4.831,2.22q5.636,0,12.079-6,5.825-5.44,6.9-9.779a7.039,7.039,0,0,0,.142-.759h4.62q-5.616,6.181-12.305,12.688c-.691.666-1.031,1.179-1.019,1.545.04.487.54.82,1.505,1a4.1,4.1,0,0,0,3.159-.684q.379-.406,3.209-3.092A29.822,29.822,0,0,1,44.271,50.5Q32.8,58.461,16.708,61.959a.883.883,0,0,0-.566.5c-.074.184.039.258.34.229a58.957,58.957,0,0,0,29.944-9.6A24.21,24.21,0,0,1,50.4,60.96a1.621,1.621,0,0,0,1.183,1.322,3.145,3.145,0,0,0,2.356-.5,6.03,6.03,0,0,0,2.186-2.458q2.056-4.626-5.22-9.169,4.209-3.07,10.424-8.55,5.306-4.682,8.434-7.246h5.381a1.445,1.445,0,0,0,.979-.32A.567.567,0,0,0,76.3,33.4a7.824,7.824,0,0,0-1.29-2.88c1.337-.836,2.79-1.667,4.37-2.483q7.371-3.789,11.936-3.789a13.553,13.553,0,0,1,1.53.072h.28c.413,0,.653-.149.727-.453.081-.337-.35-.51-1.293-.51M39.631,33.129a2.813,2.813,0,0,0-.426-1.084,2.886,2.886,0,0,0-2.572-1.153,5.389,5.389,0,0,0-2.964.914,4.821,4.821,0,0,0-1.116.965c-.191,0-.314.065-.355.22a11.825,11.825,0,0,0-.458,1.637c-.062.153,0,.219.185.2.136.443.55.67,1.257.67a2.745,2.745,0,0,0,1.587-.523,2.608,2.608,0,0,0,.644-.616h3.733a5.574,5.574,0,0,1-.133.732q-.9,3.625-5.453,8.262-7.014,7.125-12.878,7.128a4.748,4.748,0,0,1-4.072-1.732,5.171,5.171,0,0,1-.6-4.539Q17.7,37.433,25.979,30.77t14.994-6.662q3.184,0,4.538,1.974t.512,5.339l.5.435q-.552.619-1.128,1.273Zm-.533,0H35.885l-.136-.016c-.071-.379-.371-.576-.906-.576a8.314,8.314,0,0,0-.882.095,1.42,1.42,0,0,1-.27.045c-.1,0-.146-.045-.12-.14q.1-.416,1.083-.825a5.011,5.011,0,0,1,1.916-.406,2.426,2.426,0,0,1,2.2,1.039,2.548,2.548,0,0,1,.327.783m.742,11.642q7.956-8.323,9.752-10.414h9.976A57.6,57.6,0,0,1,47.441,48.136a51.961,51.961,0,0,0-7.6-3.365m24.593-6.423Q54.256,47.3,52.108,48.961c-.538.424-1.014.786-1.428,1.1a.254.254,0,0,1-.037-.013A74.5,74.5,0,0,0,64.885,34.357h4.291c-1.48,1.182-3.061,2.508-4.744,3.991" transform="translate(-14.685 -20)" fill="#e3007f"/>
  <path id="Path_87" data-name="Path 87" d="M444.16,117.243c.572.64.837,1.013.8,1.118a.406.406,0,0,1-.125.188.421.421,0,0,1-.093.032h-4.421a19.168,19.168,0,0,0-.4,2.814c.483-.637.92-1.258,1.323-1.854.1-.148.174-.227.22-.238a.166.166,0,0,1,.185.02l2.2,1.13q.419.268.249.566a.536.536,0,0,1-.529.22.724.724,0,0,0-.55.235q-1.567,1.656-2.738,2.691a1.4,1.4,0,0,0,.6.8q.229.114,2.082-2.3c.088-.1.161-.14.228-.107.048.043.051.116,0,.218q-1.173,2.7-1.037,3.4a2.012,2.012,0,0,1-.031.9,1.927,1.927,0,0,1-.821,1.072,2.474,2.474,0,0,1-1.269.44c-.984-.02-1.8-.825-2.443-2.409a14.432,14.432,0,0,1-5,1.857c-.153.019-.226,0-.215-.063-.007-.073.049-.131.171-.173a12.937,12.937,0,0,0,3.393-2c.425-.377.852-.776,1.287-1.2a18.242,18.242,0,0,1,.546-6.024h-2.172l-.762,2.25c.942-.116,1.632-.221,2.074-.315.209-.074.314-.077.3-.018.023.066-.072.15-.274.253a26.479,26.479,0,0,1-2.535,1.37l-1.52,4.485a2.517,2.517,0,0,1-1.025,1.351,5.2,5.2,0,0,1-2.524.52c-.164-.03-.212-.13-.148-.3a1.843,1.843,0,0,0,.14-1.45,2.659,2.659,0,0,0-1.159-1.163c-.107-.053-.141-.126-.1-.22a.276.276,0,0,1,.269-.094,5.746,5.746,0,0,0,2.317.032.673.673,0,0,0,.255-.33l.573-1.7c-.423.126-.856.25-1.31.376a.514.514,0,0,0-.388.317,1.329,1.329,0,0,1-.29.438c-.169.086-.277.078-.34-.016-.033-.04-.039-1.084-.039-3.13,0-.189.106-.277.322-.27.142.024,1.075.034,2.806.034l.817-2.423h-3.191c-.138,0-.178-.08-.124-.236a.27.27,0,0,1,.273-.2h3.2l.626-1.857a27.241,27.241,0,0,1-2.906.032c-.1-.012-.143-.052-.129-.126a.328.328,0,0,1,.22-.188,16.708,16.708,0,0,0,2.767-1.057,12.442,12.442,0,0,0,2.643-1.586.6.6,0,0,1,.253-.143.218.218,0,0,1,.183.109l1.527,1.809a.326.326,0,0,1-.017.458c-.1.126-.3.152-.59.078a3.125,3.125,0,0,0-1.265.158l-.783,2.312h2.142a46.886,46.886,0,0,1,1.413-4.549.421.421,0,0,1,.139-.233.543.543,0,0,1,.261-.019l2.08.266c.4.033.574.133.527.3a.751.751,0,0,1-.479.391.592.592,0,0,0-.36.366,29.859,29.859,0,0,0-1.036,3.476h1.119c.3-.294.6-.573.912-.833a.511.511,0,0,1-.1-.175,1.579,1.579,0,0,1,.067-1.037,3.782,3.782,0,0,0,.12-2.489.13.13,0,0,1,.005-.156.248.248,0,0,1,.223-.062,3.685,3.685,0,0,1,1.636.709,2.992,2.992,0,0,1,.394.362,3.578,3.578,0,0,1,.382.913,2.086,2.086,0,0,1-1.024,1.871" transform="translate(-362.992 -98.547)" fill="#e3007f"/>
  <path id="Path_88" data-name="Path 88" d="M533.253,126.724a19.3,19.3,0,0,1-3.275,1.638c-1.15.339-1.868.361-2.149.079-.1-.116-.07-.4.081-.85l.649-1.918c-2.3.974-3.789,1.587-4.477,1.841a.448.448,0,0,0-.263.219.794.794,0,0,1-.313.409.182.182,0,0,1-.2,0,11.08,11.08,0,0,1,.169-3.052c0-.2.087-.294.281-.282a11.084,11.084,0,0,0,1.345.032l1.719-5.084h-1.494c-.133,0-.179-.08-.124-.236a.267.267,0,0,1,.27-.2H536.75q.385-.346.749-.678a4.036,4.036,0,0,1-.835.094c-.67.032-1.052,0-1.139-.109s-.089-.251-.015-.471l.074-.22h-4.86l-.011.03a1.2,1.2,0,0,1-.415.661,2.864,2.864,0,0,1-1.169.2c-.561.025-.888-.014-.988-.109-.1-.114-.094-.366.037-.755l1.54-4.546a.337.337,0,0,1,.124-.194.155.155,0,0,1,.169.018l1.9.911h4.864l1.053-.784a.449.449,0,0,1,.256-.111.51.51,0,0,1,.264.111l1.283.946c.392.3.3.554-.282.787a.71.71,0,0,0-.4.472l-.849,2.515a2.531,2.531,0,0,1,.471-.314.444.444,0,0,1,.238.126,9.772,9.772,0,0,1,1.242,1.636.408.408,0,0,1-.126.19.47.47,0,0,1-.086.03h-6.692l-.447,1.323h3.241l1.425-1.087a.411.411,0,0,1,.269-.107.278.278,0,0,1,.208.17l.871,1.337a.538.538,0,0,1,.1.491.476.476,0,0,1-.423.22.787.787,0,0,0-.554.344,22.16,22.16,0,0,1-2.317,2.519h.032a5.489,5.489,0,0,0,2.193.627c.173.016.254.065.23.161a.324.324,0,0,1-.262.217,3.954,3.954,0,0,0-1.764,2.14c-.1.232-.183.362-.261.394a.4.4,0,0,1-.291-.015,3.72,3.72,0,0,1-2.142-1.765m-5.6-1.946c.471-.046.88-.065,1.237-.065l.46-1.37h-1.214Zm.634-1.877H529.5l.47-1.383h-1.215Zm.62-1.822h1.211l.446-1.323h-1.213Zm4.079,4.216a24.353,24.353,0,0,1,.253-3.777h-.689l-2.055,6.074a.086.086,0,0,1-.032.048,20.442,20.442,0,0,0,2.524-2.345m-2.107-7.8h4.854l.409-1.2h-4.861Zm.552-1.638h4.854l.433-1.259h-4.862Zm2.687,7.914a.059.059,0,0,0,.04.063c.524-.681,1.056-1.451,1.617-2.313H533.5a3.775,3.775,0,0,0,.612,2.25" transform="translate(-443.215 -98.537)" fill="#e3007f"/>
  <path id="Path_89" data-name="Path 89" d="M626.095,119.584a22.676,22.676,0,0,1-2.458,3.965,14.685,14.685,0,0,1-3.3,2.88,15.293,15.293,0,0,1-5.121,2.031c-.2.052-.3.042-.3-.032,0-.093.06-.161.176-.206a13.847,13.847,0,0,0,4.419-3,19.789,19.789,0,0,0,4.538-7.19h-5.429c-.135,0-.178-.081-.121-.237a.269.269,0,0,1,.273-.2h5.441c.169-.441.338-.9.5-1.371l.86-2.546a.639.639,0,0,1,.146-.254,16.887,16.887,0,0,1,2.606.111c.486.02.7.127.633.317-.048.174-.215.319-.505.422a.711.711,0,0,0-.473.441l-.446,1.3c-.172.513-.368,1.039-.579,1.574h2.689a13.9,13.9,0,0,1,2.046-1.714.325.325,0,0,1,.253.14c.526.64.949,1.148,1.275,1.529a.3.3,0,0,1,.064.267.586.586,0,0,1-.139.188.165.165,0,0,1-.09.032h-6.263a12.607,12.607,0,0,0,0,1.983,5.151,5.151,0,0,0,3.957,4.735c.238.064.349.14.33.235s-.1.175-.253.237a2.852,2.852,0,0,0-.854.8,8.051,8.051,0,0,0-1.058,1.825c-.118.282-.215.43-.292.438a.7.7,0,0,1-.4-.08,5.5,5.5,0,0,1-.555-.391q-2.522-2.047-1.565-8.23" transform="translate(-520.451 -98.698)" fill="#e3007f"/>
  <path id="Path_90" data-name="Path 90" d="M378.2,247.534a7.472,7.472,0,0,1-3.856-1.6,5.505,5.505,0,0,1-1.9-3.067,8,8,0,0,1,.34-4.207,17.042,17.042,0,0,1,2.774-5,31.065,31.065,0,0,1,5.929-5.854,46.124,46.124,0,0,1,7.141-4.479,40.26,40.26,0,0,1,7.259-2.846,23.2,23.2,0,0,1,6.254-.983,11.385,11.385,0,0,1,4.945,1.018,5.64,5.64,0,0,1,2.855,2.846,6.9,6.9,0,0,1,.162,4.453,16.658,16.658,0,0,1-3.146,5.895,31.07,31.07,0,0,1-5.429,5.422,45.337,45.337,0,0,1-6.88,4.494,40.344,40.344,0,0,1-7.325,3.041,23.214,23.214,0,0,1-6.817,1.1c-.53,0-2.109-.189-2.473-.256m-.221-7.232a10.783,10.783,0,0,0-1.605,4.163,2.037,2.037,0,0,0,1.122,2.166,8.341,8.341,0,0,0,3.584.63,14.759,14.759,0,0,0,5.665-1.021,19.529,19.529,0,0,0,4.861-2.883,33.69,33.69,0,0,0,4.462-4.378q2.168-2.532,4.449-5.506,2.041-2.665,3.7-5.085a15.434,15.434,0,0,0,2.2-4.275,3,3,0,0,0-.416-2.947q-.954-1.094-4.1-1.114a14.573,14.573,0,0,0-5.474.989,19.343,19.343,0,0,0-4.86,2.823,34.95,34.95,0,0,0-4.539,4.34q-2.222,2.511-4.521,5.521a63.378,63.378,0,0,0-4.527,6.576" transform="translate(-316.018 -188.105)" fill="#e3007f"/>
  <path id="Path_91" data-name="Path 91" d="M416.5,335.73l-.026,0-.06.006.031.076Zm11.575,9.417c-.044-.106-.7.04-.826.09s-.182.08-.4-.033-.7-.253-1.067-.412a11.884,11.884,0,0,1-2.865-2.214l-.7-.683c-1.776-1.766-2.327-2.5-3.353-2.99a.472.472,0,0,0-.624.014c-.3.29-.516.518-.516.518a13.43,13.43,0,0,0-1.058,1.577c-.086.131-.344.486-.373.462a1.236,1.236,0,0,1-.259-1.739,1.741,1.741,0,0,0,.9-.228.783.783,0,0,0,.295-.363c.107-.421-.494-.919-.494-.919l.093-.114c.234-.257.1-.377-.07-.5-.046-.032-.1-.07-.165-.119.314-.228.615-.578.469-.787-.184-.258.11-.2.11-.2a1.338,1.338,0,0,0,.152-1.643c-.159-.374-.561-.422-.987-.32a1.294,1.294,0,0,1-.84-.013c-.276-.182-1.523-.488-1.488.308s.227,1.094-.245,1.091-.454.185-.309.462c0,0,.048.35-.644.364s-1.446.077-1.349.605c.078.412.529.215.529.215s-.239.068-.264-.11.106-.337.369-.159a.429.429,0,0,1,.152.493.825.825,0,0,1-.488.114.964.964,0,0,0,.384.039.408.408,0,0,1-.08.044c-.2.058-1.184-.057-.94-.862a.792.792,0,0,0,.078.834,1.052,1.052,0,0,0,1.18.425c-.229.19-.621.42-.946.119a.754.754,0,0,0,.755.273c-.218.4-.364.671-.364.671a2.3,2.3,0,0,0-.184.372.518.518,0,0,0,.069.53c.435.579,1.408,1.618,1.741,2.037l.17.356c.068.134.208.153.35.329a.566.566,0,0,1,.071.531c-.04.131.011.152.011.152a.991.991,0,0,0,.131-.67s.105.207.151.311-.046.27-.09.361a.164.164,0,0,0-.013.152,1.428,1.428,0,0,0,.25-.456,1.169,1.169,0,0,0-.094-.311l.064.047c.164.186.122.326.17.463a.386.386,0,0,0,.089.176.392.392,0,0,0,.021-.177.854.854,0,0,0,.756.364,3.276,3.276,0,0,0,2.867-2.148c.579-1.342.673-.886.673-.886l-.074.378a5.068,5.068,0,0,0,.713,3.294,10.393,10.393,0,0,1,.964,3.613,1.786,1.786,0,0,1-.164.677c-.089.245.134.473.287.783a.9.9,0,0,1,.048.631l.115-.026a1.331,1.331,0,0,0-.009-.274c-.02-.171,0-.5.144-.619s.782.66.977.845.845.078,1.009.024.181-.109.211-.218-.6-.373-.726-.4-.2-.042-.315-.258-.457-.6-.635-.955a29.318,29.318,0,0,1-1.164-4.519c-.133-.758-.271-2.266-.27-2.262a7.985,7.985,0,0,0,1.79,1.212,14.2,14.2,0,0,1,2.954,2.243c.183.176.183.4.255.646s.382.309.688.479a.926.926,0,0,1,.4.485l.076-.084a1.423,1.423,0,0,0-.158-.222c-.113-.127-.294-.406-.237-.589s1.016.1,1.283.131.734-.418.839-.556a.253.253,0,0,0,.048-.3m-13.449-2.856a1.358,1.358,0,0,0-.054.192c-.179-.12-.337-.2-.419-.245-.167-.1-.4-.278-.4-.278-.385-.5-1.45-1.765-1.325-2.03a18.885,18.885,0,0,1,1.13-1.936.382.382,0,0,1,.108-.085c.023,0,.041,0,.063.007.045.053.028.222.015.377a3.82,3.82,0,0,0,.326,1.5c.151.36.438,1.21.619,1.821a1.776,1.776,0,0,1-.06.677m1.691-6.227a.611.611,0,0,0-.136-.1s.207.03.232.207Zm.136-.907a.466.466,0,0,1-.107-.087s.08-.015.107.087m-1.018,1.01a.264.264,0,0,1,.017-.407c.134-.136.5-.549.656-.513s.206.162.306.159.3-.007.277-.159a.553.553,0,0,0-.19-.289s.449-.163.565.033.148.4-.064.481-.262.146-.289.262-.159.125-.159.125l-.046.123s-.319-.141-.414-.058.2.184.209.416-.1.222-.236.177a3.7,3.7,0,0,1-.63-.35" transform="translate(-348.657 -284.85)" fill="#e3007f"/>
</svg>
