<svg xmlns="http://www.w3.org/2000/svg" width="131.618" height="79.011" viewBox="0 0 131.618 79.011">
  <g id="Group_54" data-name="Group 54" transform="translate(-55.047 -340.012)">
    <path id="Path_92" data-name="Path 92" d="M186.013,366.443h-7.275c-3.446,0-3.179-.832-3.179-.832.267-.832-2.291-.832-2.291-.832-2.558,0-2.825.832-2.825.832-.267.832-5.821.832-5.821.832H163.6c-.269,0-.387.026-.631.03,0,0,0,0,0,0a2.788,2.788,0,0,0-.03-1.285,1.79,1.79,0,0,1,.018-.772c.111-.443.81-1.072,1.991-1.442s2.33-.693,2.889-.83a3.892,3.892,0,0,0,1.113-.525,3.625,3.625,0,0,0,1.241-2.575,2.8,2.8,0,0,0-1.138-2.726c-.628-.3-.819-.234-.819-.234a.852.852,0,0,0-.5.6,2.853,2.853,0,0,0,.15,1.289,2.83,2.83,0,0,1,.153,1.285,1.32,1.32,0,0,1-.283.568c-.092.088-1.911.631-1.911.631l-1.817.542a5.346,5.346,0,0,0-2.379,1.651,6.846,6.846,0,0,0-.432,1.585,3.626,3.626,0,0,0,.387,2.312c-3.447.22-3.881.906-3.881.906l-.321,1-.654,2.037-.392,1.223c-.392,1.222.327,1.222.327,1.222.72,0,.175,1.7.175,1.7-.546,1.7.359,1.7.359,1.7.9,0,.051,1.324.051,1.324l-.855,1.324a2.394,2.394,0,0,1-2.084,1.051h-1.011l-.281,2.021c-.28,2.021,1.282,2.021,1.282,2.021h1.562a3.807,3.807,0,0,0,2.446-.905c.472-.453,3.55-.453,3.55-.453h3.079l-3.313,10.321a1.047,1.047,0,0,1-1.039.849h-1.087c-1.087,0-1.4,2.02-1.4,2.02-.312,2.02,1.879,2.02,1.879,2.02h2.191q2.969,0,4.069-3.327l5.2-16.2h-7.306c-2.19,0-1.46-1.035-1.46-1.035.732-1.035,6.285-1.035,6.285-1.035h7.886c5.553,0,6.1-1.7,6.1-1.7.544-1.7,1.4-1.7,1.4-1.7.858,0,1.9-3.242,1.9-3.242,1.04-3.243-.246-3.243-.246-3.243m-5.459,5.077c-.331,1.036-5.886,1.036-5.886,1.036h-7.917c-5.552,0-5.221-1.036-5.221-1.036.332-1.036,5.886-1.036,5.886-1.036h7.915c5.554,0,5.222,1.036,5.222,1.036m-16.633-18.115c.472-1.324-.092-5.288-1.2-10.395l-.24-.673c-.227-.927-1.766-.763-1.885.654l.109-.093c-.236.662.081,2.158.927,5.091a8.817,8.817,0,0,1,.62,3.511c-.209.836-.127,1.684-.357,1.9s-1.059.976-1.059.976c-.2.366-1.407.71-3.391,2.211q-2.7,1.988-3.114,3.631c-.616,2.177-.383,3.623.158,3.982a2.228,2.228,0,0,0,.849.392l.306.036a1.337,1.337,0,0,0,.375-.654,2.9,2.9,0,0,0-.052-1.055,2.837,2.837,0,0,1-.051-1.052,1.118,1.118,0,0,1,.261-.49,3.443,3.443,0,0,0,.309-.533,19.489,19.489,0,0,1,3.719-3.563c1.987-1.268,3.425-2.453,3.712-3.88M151.9,365.223h-4.46c-5.554,0-6.29,2.292-6.29,2.292-.736,2.291,4.817,2.291,4.817,2.291h4.463c5.554,0,6.29-2.291,6.29-2.291.735-2.292-4.819-2.292-4.819-2.292m-.607-13c.46-.995-.1-2.689-.885-3.885a12.6,12.6,0,0,0-2.029-2.257,30.459,30.459,0,0,0-3.136-2.452c-1.714-.431-2.948-.406-3.322-.167a.84.84,0,0,0-.414.533c-.039.3.278.709.991.943a7.774,7.774,0,0,1,6.1,4.056c.756,1.743.571,2.058.571,2.058a11.588,11.588,0,0,1-3.262,2.11q-2.894,1.478-3.365,3.359a6.4,6.4,0,0,0,1.117,5.607c.992,1.08,1.156,1.122,1.156,1.122a1.724,1.724,0,0,0,.908-.27.578.578,0,0,0,.31-.395,5.255,5.255,0,0,0-.854-1.907,3.948,3.948,0,0,1-.776-2.358q-.083-1.768,3.149-3.332t3.742-2.766m-12.473,15.3c.737-2.292-4.817-2.292-4.817-2.292h-.048a10.328,10.328,0,0,0-4.287.756l5.2-16.155h-8.333c-3.207,0-1.63-4.907-1.63-4.907,1.578-4.905-.985-4.905-.985-4.905-2.564,0-4.142,4.905-4.142,4.905-1.577,4.907-7.13,4.907-7.13,4.907h-.558c-5.554,0-5.919,1.136-5.919,1.136L105.8,352.1l-.742,2.31-2.488,7.735.905-13.891.018-.058c.019-.058-5.535-.058-5.535-.058H80.824c-5.554,0-8.337,4.806-8.337,4.806l-5.385,9.3q-.684,1.266-1.574,1.324h-.673l-1.1,3.425c-1.1,3.425-.207,3.425-.207,3.425.891,0-.806,5.287-.806,5.287l-7.129,22.223q-1.789,5.582,2.072,5.64H66.6l1.025-3.194c1.024-3.195-1.57-3.195-1.57-3.195H63.459q-.99,0-.528-1.439l1.753-5.463c.241,1.633,2.039,4.392,5.37,6.916A63.318,63.318,0,0,0,78.248,402a24.586,24.586,0,0,1,2.787,1.47l.094.124q-2.369,2.38-6.839,6.208c-3.394,2.906-5.726,4.952-6.36,5.547s-.526,1.075-.526,1.075a2.221,2.221,0,0,0,1.007,1.382,6.846,6.846,0,0,0,4.213,1.171c1.247-.22,1.731-.587,1.591-.843s2.455-2.692,2.455-2.692c2.6-2.437,7.758-7.069,10.326-9.267a19.931,19.931,0,0,1,2.839-2.271l.272-.071,18.709,8.731c.05.023.4.243,1.045.659a1.924,1.924,0,0,0,1.422.357,2.262,2.262,0,0,0,.539-.19,30.828,30.828,0,0,0,2.922-2.2,3.239,3.239,0,0,0,.634-.728c.161-.3-.042-.779-.773-1.154-10.037-4.981-16.59-8.178-18.122-8.888s-1.563-.893-1.563-.893l-.03-.184c1.727-1.552,3.026-2.7,3.461-3.072a2.753,2.753,0,0,1,.48-.382,2.059,2.059,0,0,0,.484-.434,1.066,1.066,0,0,1,.823-.4,20.288,20.288,0,0,0,3.356.782,6.766,6.766,0,0,0,2.941.05,14.667,14.667,0,0,0,4.238-1.5q3.834-2.975,5.723-4.435a35.057,35.057,0,0,0,5.2-4.95l-.023-.136c-.024-.136-.291-.292-.291-.292a2.927,2.927,0,0,0-1.71-.1,10.945,10.945,0,0,0-1.9.569q-1.469.587-1.808.694l-1.2.492a2.521,2.521,0,0,1-1.062.2c-.2-.027.427-.823.427-.823.621-.794,1.629-1.972,2.014-2.351s.355-.56.355-.56l-.033-.182a2.72,2.72,0,0,0-1.907-.27,9.27,9.27,0,0,0-1.885.66c-.98.39-1.652.635-1.834.683s-.2-.067-.2-.067l-.02-.114c1.824-2.1,2.745-3.21,2.758-3.274s-.189-.262-.189-.262a2.174,2.174,0,0,0-1.652-.176c-3.456,1.483-5.556,2.415-5.928,2.6s-.483.163-.483.163l-.112-.027q.877-1.511,1.388-2.258a14.079,14.079,0,0,0,1.681-2.621c.035-.208-.3-.352-.3-.352a2.815,2.815,0,0,0-2.181.072,54.646,54.646,0,0,0-8.134,6.208q-2.968,2.628-2.447,5.576a5.031,5.031,0,0,0,.784,1.964c.284.37-1.033,1.554-1.033,1.554-1.317,1.184-3.351,2.9-4.067,3.43a3.557,3.557,0,0,1-1.164.634l-.447.1c-9.71-4.8-17.035-8.367-19.5-9.535-.642-.3-1.154-.522-1.575-.685h22.45q3.841,0,5.691-5.64l3.359-10.474h.829c-.173,2.62,1.349,2.736,1.349,2.736,2.563,0,4.264-5.287,4.264-5.287l2.627-8.166c1.7-5.287,7.254-5.287,7.254-5.287h6.973c5.555,0,3.853,5.287,3.853,5.287l-2.58,8.02a1.047,1.047,0,0,1-1.04.849h-.582c-.584,0-.538-.112-.538-.112.047-.114.136-.329.223-.532l3.637-11.306H112.436c-1.213,0-2.83,5.025-2.83,5.025l-1.617,5.024-.73,2.275-.372,1.155c-.371,1.154,5.183,1.154,5.183,1.154h5.9a3.669,3.669,0,0,0,2.821-1.042c.383-.52.086,1.212.086,1.212l-.3,1.732h3.777q2.978,0,4.078-3.328l.007-.021.039.006c1.547,0,.1,4.5.1,4.5-1.445,4.5-2.931,4.5-2.931,4.5-1.486,0-2.223,2.291-2.223,2.291-.736,2.291.75,2.291.75,2.291,1.488,0-.11,4.973-.11,4.973-1.6,4.974-3.207,4.974-3.207,4.974-1.61,0-2.344,2.292-2.344,2.292-.736,2.292,4.818,2.292,4.818,2.292h.415c5.554,0,6.29-2.292,6.29-2.292.736-2.292-.858-2.292-.858-2.292-1.594,0,0-4.974,0-4.974,1.6-4.973,3.007-4.973,3.007-4.973,1.41,0,2.146-2.291,2.146-2.291.736-2.291-.674-2.291-.674-2.291-1.41,0,.035-4.5.035-4.5,1.445-4.5,2.916-4.5,2.916-4.5,1.471,0,2.206-2.291,2.206-2.291m-20.237-4.009-.742,2.309a1.048,1.048,0,0,1-1.04.848h-3.928l.878-2.733a3.6,3.6,0,0,1,3.227-2.733c2.348,0,1.605,2.309,1.605,2.309m-21.2,25.218a3.21,3.21,0,0,1,.089-1.51,13.073,13.073,0,0,1,3.388-4.262c.893-.61.432.156.432.156-.459.766-1.228,1.947-1.535,2.359s-.293.5-.293.5c.016.091.2.277.545.465a6.17,6.17,0,0,1,.573.336,2.226,2.226,0,0,0,.424-.029,7.09,7.09,0,0,0,2.09-.853c1.68-1.012,2.949-1.782,3.381-2.045s.485-.156.485-.156l.054.108L105.6,385.3c-1.413,1.511-1.481,1.8-1.481,1.8-.068.291.446.638,1.029.692a4.79,4.79,0,0,0,1.645-.4c1.064-.453,2.6-1.193,3.074-1.479a3.238,3.238,0,0,1,.747-.357l.274-.073a25.417,25.417,0,0,1-2.234,2.731.964.964,0,0,0-.368.61c0,.266.508.581,1.017.63a3.667,3.667,0,0,0,.9-.02,18.9,18.9,0,0,0,2.851-.994,24.457,24.457,0,0,1,2.754-1.008c.344-.077-.1.392-.1.392a35.672,35.672,0,0,1-3.468,2.891q-.881.671-4.32,3.058a10.135,10.135,0,0,1-2.231.724,4.09,4.09,0,0,1-1.833.011,2.86,2.86,0,0,0-.739-.134,2.931,2.931,0,0,1-1.808-1,3.8,3.8,0,0,0-1.347-1.08,4.631,4.631,0,0,1-.923-.647,5.532,5.532,0,0,1-1.664-2.934m-5.51,13.348c-.063-.361.423-.711.941-.882s3.721,1.368,3.721,1.368c3.2,1.536,7.61,3.669,10.014,4.863,3.286,1.6,5.314,2.689,5.7,2.979s.295.587.295.587a1.156,1.156,0,0,1-.887.655c-.352.03-5.3-2.246-5.3-2.246l-4.946-2.277c-3.687-1.716-6.829-3.328-8.13-4.079s-1.332-.793-1.332-.793a.472.472,0,0,1-.079-.174m1.139-5.581c4.238-3.59,4.421-3.637,4.421-3.637a1.053,1.053,0,0,1,.777.355c.207.225-.732,1.11-.732,1.11-.94.883-3.094,2.851-5.52,5.025l-9.759,8.649q-5.511,4.845-9.679,8.8c-.561.325-.907.513-.974.539a1.228,1.228,0,0,1-.337-.019,1.636,1.636,0,0,1-.875-.655.659.659,0,0,1-.091-.513,4.5,4.5,0,0,1,1.145-1.338q.8-.7,1.679-1.419Zm-26.2-8.369.057-.08,1.833.656,9.488,4.723c3.348,1.68,6.426,3.317,7.831,4.112s.889,1.385.889,1.385a17.471,17.471,0,0,1-2.874,2.346,3.567,3.567,0,0,1-1.158.594,3.474,3.474,0,0,1-1.333-.387l-1.33-.653a27.086,27.086,0,0,0-3.784-1.994,45.647,45.647,0,0,1-6.457-4.558c-2-1.888-3.075-3.909-3.147-4.987a3.939,3.939,0,0,1-.014-1.158m1.786-10.028c.508-1.583,6.062-1.583,6.062-1.583H90.843l-.554,1.727q-.462,1.437-1.453,1.439H68.082Zm8.979-10.675H88.207c5.553,0,5.009,1.7,5.009,1.7-.545,1.7-6.1,1.7-6.1,1.7H76.48c-5.554,0-5.008-1.7-5.008-1.7.544-1.7,6.1-1.7,6.1-1.7m18.373-9.641c-.223,2.792-3.767,2.792-3.767,2.792-3.545,0-2.981-1.756-2.981-1.756.563-1.755-2.745-1.755-2.745-1.755-3.307,0-3.87,1.755-3.87,1.755-.562,1.756-4.108,1.756-4.108,1.756-3.545,0-1.937-2.792-1.937-2.792,1.609-2.792,7.162-2.792,7.162-2.792H90.61c5.554,0,5.331,2.792,5.331,2.792M136.707,346c.693-2.155-.243-2.155-.243-2.155h-.937q-.676,0-.824-.78l-.716-1.97h-2.81c-2.808,0-2.254,2.19-2.254,2.19l.555,2.19a2.746,2.746,0,0,0,3,2.682h3.531Zm-21.954-.56,3.577-4.346h-5.493l-1.475,1.528a2.657,2.657,0,0,1-2.16,1.086h-1.688l-.326,2.156a1.679,1.679,0,0,0,1.64,2.155h1.963q2.12,0,3.962-2.579m16.664,50.18c-.368,2.292.828,2.292.828,2.292h1.195q2.789,0,4.218-3.021l6.722-15.583h1.287c1.287,0-.411,5.288-.411,5.288l-3.209,9.99q-1.055,3.293,1.935,3.327h3.708l.736-2.292c.736-2.292.323-2.292.323-2.292h-.414q-.767,0-.493-.849l4.229-13.173h.8c.8,0,1.532-2.292,1.532-2.292.738-2.29-4.817-2.29-4.817-2.29h-6.054c-5.554,0-6.29,2.29-6.29,2.29-.736,2.292.644,2.292.644,2.292h1.378l-5.474,13.037q-.428.952-1.113.984h-.889Zm23.1-4.635q2.053,0,3.808-2.409l3.052-3.972h-5.36l-1.074,1.529a2.457,2.457,0,0,1-2.064,1.085h-1.257l-.237,1.884a1.492,1.492,0,0,0,1.448,1.884Zm-5.117,3.159-.237,1.884c-.237,1.884,1.386,1.884,1.386,1.884h1.624q2.051,0,3.806-2.411l2.885-3.836H153.5l-.906,1.391a2.457,2.457,0,0,1-2.065,1.087Zm22.494-10.523-2.685,11.133q-.8,3.158,1.925,3.159H177.2l.736-2.292c.736-2.292-.994-2.292-.994-2.292h-1.731c-.452,0-.59-.326-.421-.983l.327-1.493h1.379q1.652,0,2.734-2.887l4.065-8.658h-1.456c-1.456,0-2.946,3.26-2.946,3.26l-1.49,3.259q-.26.713-.78.714h-.46l1.015-4.159c1.013-4.159-1.484-4.159-1.484-4.159-2.5,0-3.8,5.4-3.8,5.4" transform="translate(0 0)" fill="#fd3a13"/>
    <path id="Path_93" data-name="Path 93" d="M748.554,1016.774a3.093,3.093,0,0,0-.215-1.361,1.617,1.617,0,0,0-.877-.665,4.336,4.336,0,0,0-1.6-.264,3.983,3.983,0,0,0-1.467.241,1.78,1.78,0,0,0-.881.67,2.593,2.593,0,0,0-.272,1.354,2.513,2.513,0,0,0,.192,1.055,1.758,1.758,0,0,0,.485.647,11.053,11.053,0,0,0,1.192.752,7.128,7.128,0,0,1,1.13.731,1.357,1.357,0,0,1,.224.931.834.834,0,0,1-.118.488.409.409,0,0,1-.358.165.388.388,0,0,1-.335-.13,1.141,1.141,0,0,1-.095-.583v-.98h-2.242v.528a3.654,3.654,0,0,0,.212,1.4,1.682,1.682,0,0,0,.9.811,3.9,3.9,0,0,0,1.654.318,4.016,4.016,0,0,0,1.548-.276,1.761,1.761,0,0,0,.9-.685,2.657,2.657,0,0,0,.232-1.269,2.8,2.8,0,0,0-.418-1.718,6.834,6.834,0,0,0-2.031-1.363,1.768,1.768,0,0,1-.682-.493,1.166,1.166,0,0,1-.126-.608.8.8,0,0,1,.112-.467.382.382,0,0,1,.33-.155.336.336,0,0,1,.287.115,1.035,1.035,0,0,1,.085.533v.6h2.242Zm4.031-2.121v5.938a2.651,2.651,0,0,1-.066.765.284.284,0,0,1-.3.162.262.262,0,0,1-.266-.148,2.067,2.067,0,0,1-.066-.674v-6.043h-2.413v4.769a16.975,16.975,0,0,0,.058,1.79,1.6,1.6,0,0,0,.372.808,2.2,2.2,0,0,0,.952.622,4.152,4.152,0,0,0,1.468.239,3.794,3.794,0,0,0,1.3-.2,2.1,2.1,0,0,0,.892-.592,1.644,1.644,0,0,0,.407-.762,8.068,8.068,0,0,0,.07-1.286v-5.386Zm3.348,8.058h2.414v-3.244h.648a3.626,3.626,0,0,0,1.282-.19,1.2,1.2,0,0,0,.674-.542,2.578,2.578,0,0,0,.184-1.125v-.7a4.786,4.786,0,0,0-.1-1.118,1.274,1.274,0,0,0-.361-.615,1.763,1.763,0,0,0-.8-.389,6.521,6.521,0,0,0-1.517-.135h-2.431Zm3.033-6.555a.7.7,0,0,1,.148.537v.662a.928.928,0,0,1-.129.59.606.606,0,0,1-.461.142c-.049,0-.109,0-.178-.005v-2.05a1.047,1.047,0,0,1,.619.124m2.861,6.555h4.185V1021.1H764.24v-1.772h1.508v-1.533H764.24v-1.528h1.611v-1.613h-4.025Zm4.879,0h2.414v-3.633q.5,0,.615.154a1.62,1.62,0,0,1,.118.8v2.677h2.241v-2.125a6.548,6.548,0,0,0-.06-1.192,1.194,1.194,0,0,0-.307-.475,1.922,1.922,0,0,0-.963-.413,1.52,1.52,0,0,0,1.061-.388,2.1,2.1,0,0,0,.269-1.264,2.372,2.372,0,0,0-.381-1.5,1.615,1.615,0,0,0-.985-.585,15.065,15.065,0,0,0-2.314-.114h-1.708Zm2.99-6.56a.612.612,0,0,1,.158.5v.443c0,.355-.054.564-.164.63a1.2,1.2,0,0,1-.57.1v-1.792a1,1,0,0,1,.575.119m4.991-1.5v1.613h1.427v6.445h2.414v-6.445h1.434v-1.613Zm6.039,0-1.231,8.058h2.5l.145-1.448H783l.13,1.448h2.466l-1.38-8.058Zm1.379,5.182q.094-1.07.463-3.384.184,2.015.367,3.384Zm9.014-3.061a3.084,3.084,0,0,0-.216-1.361,1.62,1.62,0,0,0-.877-.665,4.334,4.334,0,0,0-1.6-.264,3.989,3.989,0,0,0-1.468.241,1.772,1.772,0,0,0-.879.67,2.59,2.59,0,0,0-.272,1.354A2.505,2.505,0,0,0,786,1017.8a1.763,1.763,0,0,0,.484.647,11.107,11.107,0,0,0,1.192.752,7.184,7.184,0,0,1,1.13.731,1.36,1.36,0,0,1,.223.931.839.839,0,0,1-.118.488.412.412,0,0,1-.358.165.388.388,0,0,1-.335-.13,1.134,1.134,0,0,1-.1-.583v-.98h-2.242v.528a3.661,3.661,0,0,0,.212,1.4,1.682,1.682,0,0,0,.9.811,3.9,3.9,0,0,0,1.654.318,4.01,4.01,0,0,0,1.548-.276,1.758,1.758,0,0,0,.9-.685,2.653,2.653,0,0,0,.232-1.269,2.8,2.8,0,0,0-.418-1.718,6.835,6.835,0,0,0-2.031-1.363,1.772,1.772,0,0,1-.682-.493,1.17,1.17,0,0,1-.126-.608.8.8,0,0,1,.112-.467.38.38,0,0,1,.33-.155.336.336,0,0,1,.286.115,1.033,1.033,0,0,1,.086.533v.6h2.242Zm.545-2.121v1.613h1.428v6.445H795.5v-6.445h1.433v-1.613Zm5.825,8.058h4.185V1021.1H799.9v-1.772h1.508v-1.533H799.9v-1.528h1.611v-1.613h-4.025Z" transform="translate(-624.668 -612.215)" fill="#fd3a13"/>
  </g>
</svg>
