<svg xmlns="http://www.w3.org/2000/svg" xmlns:xlink="http://www.w3.org/1999/xlink" width="31" height="31" viewBox="0 0 31 31">
  <defs>
    <clipPath id="clip-path">
      <rect id="Rectangle_466" data-name="Rectangle 466" width="23.721" height="23.669" fill="#fff"/>
    </clipPath>
  </defs>
  <g id="Group_1268" data-name="Group 1268" transform="translate(-8676.788 -56.788)">
    <rect id="Rectangle_297" data-name="Rectangle 297" width="31" height="31" transform="translate(8676.788 56.788)" fill="#fff" opacity="0"/>
    <g id="menu_btn_mo1" transform="translate(8680.669 60.669)">
      <g id="Group_1267" data-name="Group 1267" transform="translate(0 0)" clip-path="url(#clip-path)">
        <path id="Path_184" data-name="Path 184" d="M25.5,24.276l-5.15-5.15a10.074,10.074,0,1,0-8.063,4.057A10.157,10.157,0,0,0,18.43,21.1l5.15,5.15a1.447,1.447,0,0,0,1.977,0,1.4,1.4,0,0,0-.052-1.977M12.292,20.426a7.335,7.335,0,1,1,7.335-7.335,7.2,7.2,0,0,1-1.248,4.057,7.737,7.737,0,0,1-1.925,1.977,7.582,7.582,0,0,1-4.162,1.3" transform="translate(-2.2 -3)" fill="#fff"/>
      </g>
    </g>
  </g>
</svg>
