<svg xmlns="http://www.w3.org/2000/svg" width="102.06" height="42.008" viewBox="0 0 102.06 42.008">
  <g id="TVBS-blue" transform="translate(0 -0.01)">
    <path id="Path_1" data-name="Path 1" d="M417.482,132.03h-4.936a1.93,1.93,0,0,1-1.594-2.715,4.395,4.395,0,0,1,2.95-2.62l.115-.032h10.017l1.26-4.073H414.69a8.577,8.577,0,0,0-8.363,6.377c-1,3.431.435,6.438,3.677,7l.852.055h6.3l.086.025a1.886,1.886,0,0,1,1.2,2.574,3.981,3.981,0,0,1-3.637,2.425h-.019l-.762.065H404l-1.188,3.8h12.2l.512-.013a7.78,7.78,0,0,0,7.54-5.938c.978-3.641-.985-6.089-4.134-6.826C418.753,132.1,417.482,132.03,417.482,132.03Z" transform="translate(-323.235 -102.915)" fill="#044996"/>
    <path id="Path_2" data-name="Path 2" d="M226.479,123.956c-.21.189-.546.5-.989.909l-14.2,13.881,5.186-16.432H211l-7,22.252h6.91l22.945-22.256H230.4A5.123,5.123,0,0,0,226.479,123.956Z" transform="translate(-166.168 -102.693)" fill="#044996"/>
    <path id="Path_3" data-name="Path 3" d="M318.947,133.372l-.456-.248.569-.372a6.249,6.249,0,0,0,3.019-4.283c.573-3.893-2.11-5.77-5.627-6.066l-1.107-.023h-9.8L304.2,126.5h11.338c1.9,0,2.675,1.243,1.864,2.94a5.218,5.218,0,0,1-4.212,2.444h-3.33l-1.188,3.851,6.116.029.092.023a1.909,1.909,0,0,1,1.207,2.6,3.759,3.759,0,0,1-2.906,2.457l-.768.069h-6.962l3.8-12.35h-5.207l-5.213,16.19h4.655v.013h9.133l.521-.013a7.819,7.819,0,0,0,7.441-5.459C321.448,136.609,320.837,134.4,318.947,133.372Z" transform="translate(-241.087 -102.749)" fill="#044996"/>
    <path id="Path_4" data-name="Path 4" d="M49.264,48.681c-.178,0-.237-.229-.092-.54,1.293-2.767,2.135-5.551,7.8-5.6H75.93L80.282,28.93H53.253c-17.312,0-21.337.84-26.021,6.349A34.7,34.7,0,0,0,24.4,39.638c-.871,1.579-.951,2.9,1.113,2.9H42.564L35.845,64.009c-1.14,3.748.972,6.788,4.722,6.788H53.36l7.007-22.116Z" transform="translate(-23.82 -28.92)" fill="#044996"/>
  </g>
</svg>
